# Wavefront OBJ file written 2025-09-25T19:58:14
o HumanHQ0deg_edgeMesh

# points : 1502
# lines  : 4500

# <points count="1502">
v 0.0707055 -0.11773 0.548582
v 0.0693342 -0.0798319 0.589994
v 0.0449048 -0.103387 0.561823
v 0.194001 0.0396802 -0.908326
v 0.204434 0.0602467 -0.920218
v 0.201229 0.0388181 -0.923576
v 0.219945 0.0731369 -0.912196
v 0.233622 0.0703789 -0.920278
v 0.187351 0.0037204 -0.859546
v 0.327844 -0.153949 -0.917991
v 0.310827 -0.183278 -0.915373
v 0.320129 -0.174518 -0.920003
v 0.293971 -0.189647 -0.919179
v 0.260211 -0.193307 -0.925867
v 0.279883 -0.145712 -0.927196
v 0.229216 -0.144709 -0.91893
v 0.220153 -0.126842 -0.905197
v 0.330024 -0.129658 -0.920199
v 0.228432 -0.0911385 -0.920354
v 0.234053 -0.00838392 -0.928339
v 0.172094 -0.0575235 -0.59771
v 0.14308 0.0481088 -0.606885
v 0.194926 -0.06915 -0.601086
v 0.172251 0.0811619 -0.611524
v 0.19743 0.0904286 -0.582914
v 0.163418 0.0742729 -0.548487
v 0.133303 -0.0183174 -0.562402
v 0.134112 0.0182568 -0.599207
v 0.274973 0.0266578 -0.552382
v 0.26055 0.0676965 -0.582733
v 0.220619 0.085844 -0.54922
v 0.130636 0.015007 -0.565658
v 0.184536 0.0812628 -0.532533
v 0.265537 0.0385575 -0.527091
v 0.244765 0.0452786 -0.499393
v 0.225416 0.0604722 -0.49001
v 0.192858 -0.101954 -0.484565
v 0.211179 -0.109216 -0.470962
v 0.231094 -0.102704 -0.458214
v 0.210607 -0.114606 -0.438946
v 0.235002 -0.0938544 -0.427612
v 0.24569 -0.0674359 -0.446323
v 0.21106 -0.109639 -0.403656
v 0.0855054 0.0300488 -0.307272
v 0.218738 0.0615013 -0.33049
v 0.248935 -0.0653961 -0.319484
v 0.107268 -0.120686 -0.262214
v 0.107197 -0.0985496 -0.335174
v 0.249047 -0.0304447 -0.297094
v 0.227195 0.0523818 -0.298105
v 0.158964 0.0977723 -0.295965
v 0.14216 0.0875025 -0.317894
v 0.238593 -0.0607188 -0.190415
v 0.231754 -0.0869475 -0.240794
v 0.0586156 -0.0450734 -0.293132
v 0.0511346 -0.0129911 -0.266245
v 0.0588226 -0.0716781 -0.257858
v 0.16329 0.101869 -0.263678
v 0.128007 0.0972145 -0.252449
v 0.109629 0.0790421 -0.282543
v 0.210003 -0.0904566 -0.0723068
v 0.201542 -0.109406 -0.101504
v 0.144055 0.100135 -0.203421
v 0.143431 -0.146436 -0.188982
v 0.0420501 -0.0838872 -0.177503
v 0.158557 -0.1313 0.0180698
v 0.179884 -0.13122 -0.115749
v 0.17873 -0.11213 0.0184186
v 0.202875 -0.0737417 -0.000986069
v 0.207348 -0.0422529 0.00747304
v 0.222277 0.00128393 -0.0629357
v 0.0402316 -0.0510827 -0.220018
v 0.198825 0.0491711 -0.0601802
v 0.120737 -0.138641 0.0757756
v 0.113172 -0.152285 0.019033
v 0.053088 0.113408 -0.0716993
v 0.114925 0.119132 -0.0119933
v 0.0755937 0.129688 -0.0365708
v 0.0742378 0.134127 0.00877535
v 0.0295984 0.12728 -0.0415098
v 0.0544288 -0.171391 0.32783
v 0.0612142 -0.169923 0.231715
v 0.0870826 -0.139029 0.469561
v 0.124409 -0.117068 0.464739
v 0.127579 -0.118769 0.488201
v 0.0916446 -0.147004 0.388949
v 0.145572 -0.103566 0.20657
v 0.162394 -0.0648347 0.191042
v 0.145217 0.0588274 0.107925
v 0.133167 0.0909581 0.0778226
v 0.0976674 -0.135038 0.494691
v 0.044485 -0.144772 0.494817
v 0.020926 -0.171184 0.352817
v 0.107746 0.112109 0.0632567
v 0.0191785 -0.176294 0.00421767
v 0.00416638 -0.14345 -0.0823637
v 0.00697022 -0.1591 -0.0708727
v 0.0140297 -0.171101 -0.0399622
v 0.0413194 -0.0949291 0.850715
v 0.0398564 -0.0948225 0.842329
v 0.0368687 -0.0956233 0.842185
v -0.00451774 -0.0974436 0.721926
v 0.0383846 -0.0649865 0.734117
v 0.0766553 -0.0408953 0.863801
v 0.652615 -0.0154064 -0.00373204
v 0.649195 0.0202396 0.0240516
v 0.642024 0.02796 0.0193997
v 0.634675 0.023102 0.00570149
v 0.228488 -0.0140523 0.49493
v 0.459202 0.0931735 0.29058
v 0.406114 0.111389 0.339289
v 0.430618 0.07186 0.270298
v 0.475257 0.0769456 0.263736
v 0.328476 0.0893923 0.488335
v 0.302625 0.100803 0.506493
v 0.510089 -0.0199303 0.28725
v 0.601932 0.00833964 0.143127
v 0.017198 -0.0956006 0.911055
v 0.0316072 -0.077602 0.924056
v 0.0181402 -0.10639 0.881249
v 0.0303823 -0.0108078 0.949163
v 0.0380818 -0.0405692 0.94239
v 0.0452371 0.0699357 0.894355
v 0.0485052 0.052825 0.917551
v 0.0739141 0.036242 0.891259
v 0.0607442 0.0604509 0.860957
v 0.0500571 0.0215155 0.935122
v 0.067804 0.0203014 0.917712
v 0.0384495 0.0751372 0.852354
v 0.0767148 -0.0210421 0.905127
v 0.017299 0.0395043 0.941604
v 0.0180713 0.0720316 0.915166
v 0.0308221 0.096112 0.699874
v 0.0928246 0.107423 0.671735
v 0.181248 0.0805809 0.653621
v 0.0925421 0.0264242 0.82868
v 0.0535995 -0.0543473 0.925424
v -0.00805668 -0.0841661 0.925742
v -0.000731858 -0.0625944 0.940887
v 0.00428984 0.0841629 0.89285
v 0.00277373 0.0850072 0.857368
v 0.0557059 0.138526 0.632056
v 0.182638 0.0589011 0.658823
v -0.00182838 0.124486 0.64729
v 0.244164 -0.0316114 0.563691
v 0.245647 -0.024033 0.584
v 0.266231 -0.018708 0.558828
v 0.197172 0.121641 0.600951
v 0.237948 0.107781 0.600047
v 0.263992 0.0522072 0.610934
v 0.276437 0.0280311 0.595238
v 0.249318 0.0750432 0.618194
v 0.227536 0.123775 0.570816
v 0.292724 0.029305 0.563389
v 0.332142 0.0150307 0.471341
v 0.395488 0.0640427 0.286099
v 0.581171 0.0345934 0.259824
v 0.118099 0.159155 0.502227
v 0.0637757 0.128354 0.383276
v 0.588271 -0.0324289 0.144503
v 0.265841 0.118687 0.398386
v 0.2358 0.135136 0.493923
v 0.24966 0.133501 0.428913
v 0.378897 -0.00318877 0.391883
v 0.303055 -0.00477938 0.380455
v 0.226631 0.120151 0.413448
v 0.262671 -0.0019577 0.411971
v 0.33029 -0.012977 0.432324
v 0.466818 0.0924562 0.349488
v 0.54302 0.0629926 0.28412
v 0.599099 -0.113477 0.0558977
v 0.605465 -0.0978796 0.0622514
v 0.608723 -0.111503 0.0632588
v 0.595157 -0.0897135 0.0642989
v 0.585789 -0.10202 0.0778118
v 0.584925 -0.101904 0.109623
v 0.616815 -0.0599603 0.121805
v 0.462866 0.0248525 0.380359
v 0.47236 0.0616032 0.368301
v 0.336637 -0.00947979 0.371098
v 0.612176 -0.0662427 0.202182
v 0.633971 -0.0579218 0.19815
v 0.652165 -0.0373112 0.181753
v 0.67128 -0.0657954 0.146892
v 0.697777 -0.0784202 0.0116691
v 0.684519 -0.0721318 0.00130733
v 0.688341 -0.0826591 0.00488417
v 0.680833 -0.0780697 0.0225777
v 0.680084 -0.0672992 0.0257913
v 0.119934 0.138615 0.406206
v 0.121188 0.119454 0.369543
v 0.40284 0.118051 0.370031
v 0.630178 0.017037 0.0161102
v 0.639705 0.0162595 0.00854152
v 0.667214 -0.00960228 0.0119129
v 0.654334 -0.00765755 -0.0100499
v 0.647588 -0.00279801 1.55182e-05
v 0.683365 -0.0327103 0.00641872
v 0.679591 -0.0464911 -0.0163296
v 0.671246 -0.0495061 0.0161289
v 0.668379 -0.0443176 -0.00741808
v 0.224764 -0.029959 0.547954
v 0.151682 -0.0821464 0.535344
v 0.170873 -0.0703638 0.506495
v 0.0933111 0.0285233 0.843295
v -0.017555 -0.00259319 0.952502
v -0.0110558 0.0493557 0.937656
v -0.0190423 0.0697647 0.918267
v -0.000964393 -0.0746998 -0.0760747
v 0.0132492 -0.109344 0.772503
v 0.00469367 -0.106738 0.767772
v 0.0683862 0.119804 0.0696558
v 0.00248231 -0.136979 0.80429
v 0.0499931 -0.0869665 0.846888
v 0.0489455 -0.0879424 0.847621
v 0.0508173 -0.0846855 0.845752
v 0.255773 -0.190324 -0.904515
v -0.049641 -0.0877062 0.806831
v -0.0246266 -0.0935897 0.744504
v -0.0216202 -0.0979429 0.767661
v -0.202244 0.0577153 -0.918011
v -0.19477 0.0305609 -0.912633
v -0.210702 0.046013 -0.926979
v -0.222916 0.0711629 -0.920118
v -0.240243 0.072051 -0.915962
v -0.32807 -0.153385 -0.912449
v -0.310286 -0.183322 -0.919285
v -0.327752 -0.153681 -0.918079
v -0.342856 -0.152733 -0.919379
v -0.311899 -0.166235 -0.92075
v -0.312938 -0.163206 -0.919035
v -0.29421 -0.190245 -0.91796
v -0.259643 -0.199019 -0.922753
v -0.262475 -0.202493 -0.91165
v -0.280191 -0.177141 -0.9191
v -0.276844 -0.195016 -0.908802
v -0.231789 -0.132032 -0.924426
v -0.220248 -0.123856 -0.907312
v -0.319773 -0.0866968 -0.923508
v -0.326198 -0.0746002 -0.913733
v -0.257404 0.0561189 -0.912402
v -0.270967 0.0493918 -0.672902
v -0.154516 -0.0100855 -0.643447
v -0.195416 0.0897404 -0.598907
v -0.170534 0.080283 -0.609514
v -0.137039 0.0329581 -0.602931
v -0.217756 0.0899011 -0.573636
v -0.145806 0.0602763 -0.581775
v -0.160117 -0.0457985 -0.600505
v -0.177572 -0.0680985 -0.574592
v -0.266407 0.0158507 -0.524212
v -0.271735 0.0476366 -0.568188
v -0.257984 0.059476 -0.535096
v -0.201168 0.0853011 -0.537069
v -0.257038 0.0340314 -0.50897
v -0.169577 0.0808935 -0.559888
v -0.145918 0.0559201 -0.545958
v -0.220385 0.074657 -0.510668
v -0.217291 -0.111192 -0.455961
v -0.233764 -0.0994212 -0.443012
v -0.136216 -0.106253 -0.390264
v -0.219247 0.0647357 -0.29555
v -0.148695 0.0879541 -0.322013
v -0.110342 -0.0931441 -0.356328
v -0.246215 -0.0182813 -0.2689
v -0.244025 -0.0498456 -0.215369
v -0.177479 0.0937772 -0.304029
v -0.129789 -0.137761 -0.228361
v -0.179783 -0.128851 -0.225343
v -0.184327 0.0948146 -0.264179
v -0.11289 0.0822727 -0.277062
v -0.0717105 -0.0211732 -0.333718
v -0.0587504 -0.0597694 -0.277099
v -0.205511 -0.113808 -0.197162
v -0.142101 0.100964 -0.260106
v -0.0520737 -0.00471288 -0.264236
v -0.0448602 -0.0313777 -0.246956
v -0.140916 0.0989301 -0.194347
v -0.218377 -0.0806281 -0.0984852
v -0.227794 -0.024139 -0.089821
v -0.231576 0.00736242 -0.166551
v -0.147509 -0.147507 -0.146813
v -0.15288 -0.136927 -0.24468
v -0.2045 -0.0777616 -0.0140895
v -0.164962 -0.138257 -0.0869116
v -0.186701 -0.116326 -0.0366848
v -0.15402 -0.131581 0.0318295
v -0.213483 -0.0243108 -0.0122164
v -0.192644 0.0514424 -0.0435714
v -0.212197 0.0276474 -0.0576803
v -0.122148 -0.141334 0.0645964
v -0.194167 0.0075915 0.0275771
v -0.0359593 0.0476673 -0.113633
v -0.0711753 0.120849 -0.0605851
v -0.033365 0.112326 -0.0703141
v -0.094554 0.126026 -0.0330007
v -0.131903 0.100375 0.0581845
v -0.0740668 0.135612 0.000455948
v -0.0430626 0.132347 -0.0351941
v -0.128887 -0.116502 0.472425
v -0.106974 -0.124709 0.511422
v -0.0960004 0.0984398 0.100043
v -0.164171 -0.0554093 0.184549
v -0.151487 -0.0953336 0.188734
v -0.0670982 -0.162319 0.377991
v -0.0775109 0.1311 0.0359651
v -0.0937357 -0.104314 0.559703
v -0.0741076 -0.135763 0.515224
v -0.0379154 0.134092 0.0286114
v -0.100945 -0.0660813 0.593791
v -0.0393442 -0.0949684 0.842366
v -0.020666 -0.0905932 0.846923
v -0.0196484 -0.0904613 0.847193
v -0.0170172 -0.111722 0.810532
v -0.0642713 -0.0598664 0.800568
v -0.0271407 -0.0872747 0.726531
v -0.0775707 -0.00116995 0.834906
v -0.671373 -0.0304812 0.0472908
v -0.67134 -0.040242 -0.012922
v -0.676978 -0.049592 -0.0152073
v -0.647518 -0.0134976 0.000707535
v -0.665099 -0.0134815 0.0105114
v -0.680275 -0.00329313 0.0727172
v -0.638452 0.0244876 0.00541158
v -0.410978 0.06377 0.276109
v -0.588909 -0.0272146 0.251103
v -0.148153 0.127775 0.39608
v -0.298958 0.0353772 0.543772
v -0.332109 0.0896966 0.481359
v -0.594817 0.0301851 0.242484
v -0.0512565 -0.0822732 0.899626
v -0.0668355 -0.0338898 0.776455
v -0.062897 0.0534611 0.89643
v -0.0496042 0.0450165 0.922843
v -0.0316487 0.0789921 0.856905
v -0.0371113 0.074391 0.896331
v -0.0930369 0.0255043 0.851407
v -0.079787 0.00925212 0.896224
v -0.0638706 -0.0252696 0.927791
v -0.0454993 0.00655963 0.941535
v -0.0404745 -0.0370751 0.941883
v -0.0432243 0.105148 0.688994
v -0.0869806 0.0077573 0.809379
v -0.0512394 0.149606 0.602747
v -0.238574 -0.0311363 0.575695
v -0.266901 -0.0174363 0.558546
v -0.219854 -0.00430387 0.61403
v -0.251646 0.0329397 0.621618
v -0.288904 0.0080925 0.55453
v -0.252772 -0.0281469 0.550506
v -0.275727 0.0229718 0.594364
v -0.245089 0.0659822 0.626365
v -0.224673 0.12208 0.585362
v -0.263921 0.0891709 0.590958
v -0.378329 0.0966216 0.326497
v -0.405942 0.108255 0.329918
v -0.411635 0.0210471 0.279307
v -0.563045 0.0266082 0.289799
v -0.115443 0.156094 0.476429
v -0.229531 0.136903 0.489111
v -0.0709646 0.142164 0.420195
v -0.0851738 0.130569 0.38075
v -0.123606 0.140614 0.41277
v -0.266643 0.125005 0.500554
v -0.278356 0.110418 0.390668
v -0.683751 -0.064452 0.0171472
v -0.360387 -0.00773869 0.415665
v -0.238685 0.136285 0.438374
v -0.299562 0.000482832 0.377218
v -0.323776 -0.0139292 0.389028
v -0.263187 -0.00966031 0.424444
v -0.459925 0.0478403 0.383908
v -0.61273 -0.105601 0.0722156
v -0.61032 -0.0918992 0.0723052
v -0.602127 -0.109299 0.0568046
v -0.591568 -0.102208 0.0563433
v -0.589451 -0.105982 0.0603096
v -0.598325 -0.0946079 0.146624
v -0.582056 -0.0971366 0.115228
v -0.462792 0.100925 0.318089
v -0.50482 0.0847745 0.310632
v -0.432525 0.107435 0.361887
v -0.699462 -0.0687064 0.0468867
v -0.697836 -0.0783223 0.0157987
v -0.695372 -0.0747246 -0.00288499
v -0.690983 -0.0822842 0.00239052
v -0.166404 0.148078 0.454085
v -0.113257 0.111358 0.357929
v -0.433814 0.092473 0.290258
v -0.641972 -0.0209133 0.19476
v -0.671554 0.00485711 0.128798
v -0.645238 0.0251537 0.149304
v -0.662008 0.0282123 0.103907
v -0.40293 0.117655 0.361305
v -0.635641 0.0169472 0.00657045
v -0.652956 -0.0038362 -0.0104855
v -0.146577 -0.0406471 0.591482
v -0.148658 -0.0917319 0.517186
v -0.166111 -0.0754682 0.497821
v -0.0495675 -0.0873958 0.847029
v -0.0407544 -0.0953939 0.850962
v -0.0395742 -0.096154 0.85156
v -0.00109736 -0.0266344 0.95294
v 0.697734 -0.0675849 0.0198281
v 0.693359 -0.0753808 -0.00343132
v 0.0237042 -0.0957891 0.76738
v 0.313222 -0.164161 -0.918747
v 0.3267 -0.14913 -0.917484
v 0.229124 0.0784962 -0.639729
v 0.0915716 0.0216997 0.857083
v 0.0187198 -0.0902146 0.846428
v 0.0776376 0.000147214 0.839906
v 0.0894449 0.0232258 0.663553
v 0.093064 0.0279587 0.832028
v 0.104346 0.0120413 0.651658
v 0.0920438 0.0226017 0.855743
v 0.0778064 -0.00153153 0.841409
v 0.0778453 -0.00130101 0.84095
v 0.077908 -0.000997951 0.840552
v 0.077821 -0.000284633 0.839986
v -0.00662683 -0.119776 0.79957
v -0.298289 -0.175025 -0.917459
v -0.312844 -0.163581 -0.917311
v -0.326934 -0.151025 -0.91778
v -0.326183 -0.149114 -0.917474
v -0.326451 -0.149488 -0.917496
v -0.325633 -0.147092 -0.917272
v -0.275238 -0.168568 -0.906323
v -0.0178266 -0.0903139 0.84575
v -0.0184898 -0.0899889 0.8453
v -0.0804169 0.000256737 0.855636
v -0.0795093 -0.00238283 0.85199
v -0.0792518 -0.00266062 0.851192
v -0.0778741 -0.00321067 0.847148
v -0.0775147 -0.00255559 0.844607
v -0.620235 -0.00809774 0.13098
v -0.0760994 0.0186608 0.66205
v -0.0013976 -0.0700938 -0.0745337
v -0.0782539 -0.00314209 0.848311
v 0.0149607 -0.10788 0.794977
v 0.0416367 -0.0935286 0.793132
v 0.0346942 -0.0953757 0.820388
v -0.000966245 -0.131542 0.795753
v -0.013077 -0.108781 0.794241
v 0.00601071 -0.119516 0.798322
v 0.0792127 -0.00075394 0.817162
v 0.073235 0.00342678 0.821265
v 0.0769889 -0.000714426 0.834022
v 0.0313788 -0.093294 0.765507
v 0.0222982 -0.0975807 0.767169
v 0.00908048 -0.105696 0.768766
v 0.0140703 -0.108811 0.772634
v 0.0246552 -0.0949577 0.767485
v 0.0284666 -0.0940703 0.767004
v 0.0210048 -0.098527 0.768159
v 0.0238419 -0.0960732 0.767773
v 0.0232165 -0.0964884 0.767361
v 0.0241869 -0.095198 0.767005
v 0.0223599 -0.0973176 0.767754
v 0.0197354 -0.0993067 0.767989
v 0.00412813 -0.107283 0.768193
v 0.245842 0.060321 -0.790891
v 0.262049 0.0463898 -0.821523
v 0.225766 0.0691792 -0.859852
v 0.193963 0.0419407 -0.856423
v 0.200129 0.00292109 -0.909814
v 0.232675 0.0262477 -0.930018
v 0.207706 0.0642133 -0.862833
v 0.198437 -0.0146778 -0.886026
v 0.211382 -0.00503081 -0.920317
v 0.256016 0.0545138 -0.915456
v 0.246448 0.0706041 -0.901792
v 0.326354 -0.149095 -0.907986
v 0.336533 -0.142366 -0.902576
v 0.312883 -0.163566 -0.90612
v 0.327092 -0.148872 -0.917627
v 0.328578 -0.154589 -0.91377
v 0.328084 -0.153487 -0.91259
v 0.343252 -0.146009 -0.914735
v 0.320555 -0.175044 -0.919817
v 0.318791 -0.173849 -0.919063
v 0.327514 -0.154012 -0.918104
v 0.315029 -0.167578 -0.913425
v 0.298286 -0.175088 -0.917384
v 0.299068 -0.176665 -0.914714
v 0.298817 -0.177091 -0.912759
v 0.298075 -0.173061 -0.908849
v 0.295564 -0.169117 -0.905444
v 0.314181 -0.166669 -0.913631
v 0.312731 -0.164205 -0.918419
v 0.318418 -0.173245 -0.919194
v 0.319363 -0.173447 -0.920245
v 0.319728 -0.173963 -0.920159
v 0.327291 -0.152663 -0.918069
v 0.326389 -0.149488 -0.917502
v 0.326063 -0.148999 -0.917488
v 0.312396 -0.163352 -0.919085
v 0.297607 -0.171775 -0.920322
v 0.279388 -0.1793 -0.913358
v 0.279805 -0.177286 -0.919123
v 0.285363 -0.188484 -0.909366
v 0.275994 -0.192708 -0.907157
v 0.278619 -0.17875 -0.912159
v 0.274612 -0.168156 -0.905541
v 0.286094 -0.190084 -0.91082
v 0.279399 -0.179325 -0.914764
v 0.276847 -0.195046 -0.908827
v 0.2472 -0.166309 -0.92632
v 0.279694 -0.175676 -0.919289
v 0.25519 -0.190378 -0.904939
v 0.264488 -0.203184 -0.912523
v 0.265777 -0.203158 -0.912522
v 0.243978 -0.175278 -0.909802
v 0.280047 -0.17675 -0.919152
v 0.259604 -0.18924 -0.90296
v 0.244705 -0.0904841 -0.852367
v 0.304911 -0.10665 -0.883414
v 0.274388 -0.118022 -0.870902
v 0.330525 -0.130512 -0.919952
v 0.22281 -0.117695 -0.918956
v 0.333634 -0.107065 -0.906704
v 0.327623 -0.0789133 -0.91525
v 0.21736 -0.0707208 -0.900976
v 0.245204 -0.0603084 -0.923422
v 0.272499 -0.113527 -0.930066
v 0.221159 -0.0818116 -0.875388
v 0.270391 -0.00625084 -0.924513
v 0.305719 -0.0511003 -0.918577
v 0.306121 -0.040426 -0.902529
v 0.271207 -0.060934 -0.838357
v 0.295262 -0.0463448 -0.865379
v 0.280142 -0.000922155 -0.910323
v 0.230734 -0.0432917 -0.817289
v 0.203669 -0.018308 -0.838728
v 0.273502 -0.00905941 -0.820238
v 0.273439 0.0297623 -0.876814
v 0.262809 0.0522126 -0.863787
v 0.251685 -0.0300836 -0.802445
v 0.212593 -0.0247474 -0.799266
v 0.274638 0.0348722 -0.839199
v 0.200681 0.0629415 -0.77149
v 0.187965 0.0150777 -0.808084
v 0.177484 0.0272849 -0.733824
v 0.198016 -0.0204282 -0.744496
v 0.271656 0.0366953 -0.718561
v 0.237319 -0.0264104 -0.767782
v 0.268629 -0.000904657 -0.698951
v 0.263764 -0.00820512 -0.774278
v 0.231565 0.0703163 -0.750945
v 0.206922 -0.0462469 -0.685075
v 0.268363 0.0542075 -0.671042
v 0.172883 0.0571911 -0.682213
v 0.201708 0.0827332 -0.643662
v 0.250695 -0.0438619 -0.641674
v 0.224667 -0.0605774 -0.632859
v 0.249102 0.0713931 -0.670051
v 0.277143 0.0249966 -0.624401
v 0.272859 0.0496395 -0.593976
v 0.176883 -0.0156752 -0.684139
v 0.154827 0.0236096 -0.65988
v 0.237672 0.0841769 -0.586114
v 0.14814 0.0630201 -0.57389
v 0.146901 -0.0246438 -0.606278
v 0.267113 -0.0160921 -0.571448
v 0.249815 0.0685913 -0.5387
v 0.259279 -0.00579682 -0.510808
v 0.202543 0.0679173 -0.491458
v 0.144729 0.0353709 -0.515835
v 0.222075 -0.0860229 -0.527357
v 0.241976 -0.0745504 -0.531663
v 0.246545 -0.0691514 -0.496135
v 0.131423 -0.0113822 -0.497238
v 0.240569 0.0137069 -0.475108
v 0.176566 0.0543238 -0.475848
v 0.178575 -0.0748131 -0.533943
v 0.14326 -0.0478309 -0.51679
v 0.175065 0.0396568 -0.445604
v 0.13725 -0.0623745 -0.464625
v 0.147381 0.0158756 -0.460655
v 0.243984 -0.0113607 -0.438769
v 0.208632 0.0344008 -0.441383
v 0.111232 -0.0178447 -0.419151
v 0.154808 -0.110861 -0.402101
v 0.237943 -0.0734287 -0.401178
v 0.206178 0.0609704 -0.359277
v 0.160442 0.061563 -0.382011
v 0.126149 0.016327 -0.409886
v 0.128801 0.0605469 -0.352612
v 0.149622 -0.0954827 -0.434905
v 0.114432 -0.0810279 -0.385646
v 0.175278 -0.113021 -0.385432
v 0.213814 -0.0970825 -0.365147
v 0.123086 -0.0443217 -0.430028
v 0.0972414 -0.0490856 -0.372705
v 0.24873 -0.0311259 -0.362713
v 0.244426 -0.0120727 -0.444569
v 0.143606 -0.130727 -0.279749
v 0.239525 -0.0780939 -0.338073
v 0.238509 0.0117505 -0.290746
v 0.18682 0.0594557 -0.39386
v 0.0739363 -0.0205756 -0.338414
v 0.185015 0.0927901 -0.302707
v 0.0795541 -0.0870158 -0.269865
v 0.18623 -0.115853 -0.297604
v 0.195144 -0.121986 -0.203088
v 0.198146 0.0878823 -0.280564
v 0.22005 0.0415623 -0.159693
v 0.204824 0.0660788 -0.165758
v 0.0503816 0.0271198 -0.190994
v 0.234785 -0.00412559 -0.172686
v 0.179637 0.0921605 -0.210843
v 0.0761097 0.0693968 -0.193384
v 0.101393 0.0884413 -0.16852
v 0.225161 -0.0469617 -0.0765079
v 0.164134 0.0872834 -0.138117
v 0.101281 -0.134288 -0.165008
v 0.111126 0.0872606 -0.128094
v 0.0505036 -0.119024 -0.128847
v 0.129404 -0.145125 -0.107165
v 0.152203 -0.144276 -0.0879668
v 0.0815715 -0.133424 -0.112636
v 0.200673 0.0247661 -0.0118607
v 0.0260541 -0.0191033 -0.141001
v 0.0317662 0.0438635 -0.105538
v 0.021013 -0.0670835 -0.104214
v 0.167151 -0.0955523 0.075962
v 0.201538 -0.0132455 0.0196899
v 0.160782 0.0838476 -0.0458891
v 0.0615515 0.084263 -0.0980782
v 0.094389 -0.149228 -0.0673097
v 0.133222 -0.120934 0.100033
v 0.128061 0.0970098 -0.0808854
v 0.178153 -0.0647437 0.0724931
v 0.0803365 -0.158862 -0.030014
v 0.149194 -0.0945797 0.163607
v 0.108276 -0.131061 0.15355
v 0.15394 -0.0794368 0.13686
v 0.166383 -0.0228506 0.123245
v 0.157861 0.0574588 0.0531968
v 0.0587168 -0.149121 -0.0744055
v 0.0642519 -0.159881 0.0534563
v 0.0594067 -0.164933 0.15943
v 0.104981 -0.142578 0.246027
v 0.0236534 0.0965643 -0.0830579
v 0.028321 0.0685889 -0.0908974
v 0.000283161 0.0392347 -0.0819533
v -0.00570639 0.0865806 -0.083919
v 0.00809919 -0.0343946 -0.0689002
v 0.023418 -0.121121 -0.0822118
v 0.0462948 -0.161004 -0.0323163
v 0.133835 0.103268 0.0269656
v 0.0037354 0.110942 -0.0594252
v -0.00392455 -0.177334 0.248747
v 0.14708 -0.0805042 0.439081
v 0.115251 -0.116781 0.413758
v 0.086372 -0.153214 0.325494
v 0.137205 0.0465201 0.138026
v 0.0973875 0.0880968 0.111381
v 0.0942067 0.0613527 0.162997
v 0.126398 0.0373986 0.178389
v 0.147924 -0.029368 0.254587
v 0.162618 -0.0266678 0.184683
v 0.142316 0.00788625 0.257762
v 0.153033 -0.0645106 0.233884
v 0.137506 0.020005 0.221019
v 0.132212 -0.0856493 0.33876
v 0.058842 -0.15403 0.41771
v 0.0863928 -0.13211 0.444356
v 0.0737142 -0.136779 0.514561
v 0.104766 -0.103602 0.552169
v 0.010368 -0.134661 0.505887
v 0.035278 -0.145195 0.46635
v 0.00149138 0.133557 -0.00250822
v 0.0261718 -0.145992 -0.07053
v -0.00502085 -0.174832 0.125077
v 0.0304472 -0.0617964 0.601805
v 0.0790248 -0.0440523 0.615167
v 0.0161225 0.0980123 0.104907
v 0.0577477 0.0708652 0.170895
v 0.0260177 0.125324 0.0501906
v -0.00190175 0.0427339 -0.0822388
v 0.000196447 -0.0772595 -0.0768531
v 0.000419294 -0.0775155 -0.0769222
v -0.00556279 -0.154324 0.431484
v 0.00179037 -0.0923356 0.553963
v 0.0910489 0.020497 0.857814
v 0.0924129 0.0235125 0.85408
v 0.0932317 0.026409 0.849696
v 0.020596 -0.0902067 0.845926
v 0.0195921 -0.0903295 0.84732
v 0.0210213 -0.0901054 0.848149
v 0.0197374 -0.0903827 0.847737
v 0.0176639 -0.0944047 0.846548
v 0.0393367 -0.0957842 0.851088
v 0.0471951 -0.0893058 0.848471
v 0.0484467 -0.0875988 0.844053
v 0.0385872 -0.0952874 0.842122
v 0.0312003 -0.096235 0.842096
v 0.0393229 -0.0949871 0.84235
v 0.0214246 -0.0901565 0.845923
v 0.0172271 -0.105338 0.816712
v -0.00246284 -0.111042 0.852704
v 0.0108595 -0.126685 0.814632
v 0.0139977 -0.10838 0.794838
v 0.0145037 -0.107935 0.794693
v 0.0134517 -0.108461 0.794592
v 0.0326374 -0.0962344 0.841931
v 0.0522027 -0.0828903 0.844922
v 0.0176564 -0.0863794 0.720492
v 0.0320631 -0.0932435 0.765383
v 0.0564977 -0.0613514 0.772676
v 0.0688052 -0.0260263 0.784143
v 0.0785872 -0.00187956 0.818907
v 0.0820152 -0.00256892 0.859185
v 0.082488 0.0145997 0.862034
v 0.0775255 0.000789601 0.839952
v 0.0779198 -0.00022011 0.83984
v 0.0912963 0.0127287 0.835729
v 0.0779616 -0.00319493 0.847467
v 0.0777652 -0.00053586 0.840393
v 0.0798421 -0.00150178 0.853567
v 0.0864745 0.0114339 0.860265
v 0.0808255 0.000721293 0.856062
v 0.0855048 0.010407 0.860156
v 0.0800396 -0.00102247 0.854343
v 0.077958 -0.0032408 0.847422
v 0.0778508 -0.00194822 0.842438
v 0.074198 -0.00560642 0.799238
v 0.0548849 -0.0196275 0.745843
v 0.0162827 -0.0521851 0.718785
v 0.00507047 -0.0374299 0.69063
v 0.0280309 -0.0348216 0.714429
v 0.659353 0.00851142 0.0837178
v 0.676603 0.0025295 0.0691097
v 0.664594 0.000633593 0.0185376
v 0.652804 4.86207e-05 0.02999
v 0.654983 -0.016103 0.0296652
v 0.655517 -0.0101121 0.0531478
v 0.671941 -0.0141461 0.0445113
v 0.657417 0.0232664 0.0579668
v 0.66535 0.022288 0.108758
v 0.666156 0.014659 0.088857
v 0.652485 0.0298245 0.0658619
v 0.638833 0.0129367 0.0509042
v 0.645957 0.0123041 0.0350667
v 0.636131 0.0273845 0.0371781
v 0.638541 0.0236435 0.0787872
v 0.647602 0.00243467 0.0841601
v 0.625387 0.0303186 0.139903
v 0.638396 0.0287669 0.146814
v 0.270443 -0.0143342 0.434744
v 0.257392 -0.014117 0.491135
v 0.407813 0.0927635 0.302577
v 0.524724 -0.00936167 0.226275
v 0.447812 0.00464986 0.283534
v 0.443791 0.01319 0.265752
v 0.301356 0.0751858 0.519116
v 0.26402 0.105082 0.533806
v 0.264888 0.102862 0.565483
v 0.353795 0.104549 0.355187
v 0.361304 0.0726103 0.321447
v 0.31321 0.0961156 0.379587
v 0.283502 0.124435 0.462547
v 0.346602 0.116813 0.41577
v 0.285075 0.123461 0.415164
v 0.33984 0.114237 0.390417
v 0.480355 -0.007722 0.286887
v 0.468545 -0.00116486 0.347298
v 0.412886 0.00879727 0.358146
v 0.592755 0.0165065 0.169235
v 0.601653 0.0268016 0.18577
v 0.588335 -0.00509597 0.161261
v 0.611567 -0.00790472 0.136542
v 0.0508075 -0.0862422 0.890937
v 0.0402236 -0.0956795 0.851479
v 0.0518902 -0.0889379 0.853392
v 0.0605167 0.011728 0.718831
v 0.0641349 0.0236241 0.797565
v 0.0490748 -0.0162903 0.680499
v 0.0108265 -0.0260721 0.652068
v 0.0244612 -0.0306477 0.651793
v 0.0655139 -0.0250169 0.925253
v 0.0531462 0.0524932 0.714413
v 0.0464544 0.0460387 0.754575
v 0.0401759 0.0534833 0.802253
v 0.0776661 0.033155 0.851842
v 0.0292824 0.0717412 0.726775
v 0.0145737 0.0588938 0.76904
v 0.078803 0.0766812 0.699598
v 0.063237 0.0224064 0.68433
v 0.0802602 0.00633612 0.891212
v 0.093193 0.110059 0.668909
v 0.111308 0.0441107 0.682272
v 0.0802919 0.00954053 0.80191
v 0.0773908 0.0206946 0.820009
v 0.0924101 0.0232603 0.824662
v 0.0926256 0.0269216 0.829443
v 0.093198 0.0282374 0.833967
v 0.0935057 0.0282885 0.835603
v 0.0897539 0.0281554 0.84755
v 0.0937245 0.0228217 0.857601
v 0.0648054 -0.0640718 0.890733
v -0.000164686 0.0736161 0.823556
v -0.00392039 0.0735543 0.725379
v 0.171292 0.100025 0.64144
v -0.00783702 0.140024 0.606975
v 0.0241215 0.120471 0.654637
v 0.0304993 0.149954 0.592054
v 0.168629 0.0210868 0.654154
v 0.232753 0.0260076 0.628914
v 0.212961 -0.0297886 0.577361
v 0.264161 -0.0176546 0.534901
v 0.176068 -0.0013622 0.622608
v 0.22711 -0.0109489 0.606695
v 0.133063 0.140356 0.583126
v 0.104465 0.133235 0.615906
v 0.0602172 0.156345 0.560593
v 0.271529 0.00119368 0.581344
v 0.298221 0.0160167 0.528399
v 0.0539061 0.153392 0.501049
v -0.00928382 0.15265 0.54089
v 0.298125 0.0149244 0.505633
v 0.306739 0.0427349 0.516302
v 0.359003 0.0396396 0.457236
v 0.331512 0.0632584 0.487632
v 0.330502 0.10117 0.461711
v 0.373309 0.0895919 0.422526
v 0.393959 0.0355039 0.286673
v 0.402202 0.0141224 0.298983
v 0.477771 0.0200987 0.24051
v 0.581742 -0.0309368 0.25268
v 0.506867 0.00512707 0.335417
v 0.553775 -0.0331811 0.254065
v 0.626314 0.024922 0.118704
v 0.598657 0.0356133 0.220351
v 0.630054 0.0193609 0.18575
v 0.635293 -0.00170707 0.197405
v 0.523077 0.0216201 0.329151
v 0.346103 0.0418611 0.331528
v 0.352609 0.0774672 0.452062
v 0.288886 0.0695403 0.558268
v 0.219407 0.123773 0.539214
v 0.144906 0.151247 0.531952
v 0.0848803 0.153299 0.46207
v 0.0287228 0.12458 0.404747
v -0.0024012 0.137255 0.450541
v 0.209475 0.138209 0.481759
v 0.186583 0.132809 0.546174
v 0.253009 0.120464 0.520481
v 0.200114 0.13193 0.444534
v 0.155255 0.152757 0.465679
v 0.0428904 0.0930451 0.345776
v 0.310882 0.0584527 0.356927
v 0.272225 0.0988315 0.383047
v 0.374258 0.00156709 0.351277
v 0.519451 0.0562087 0.326302
v 0.597717 -0.00958967 0.250798
v 0.564785 0.040253 0.21704
v 0.568885 0.0201571 0.196305
v 0.576429 0.00508656 0.188523
v 0.592943 -0.0224608 0.16068
v 0.629824 -0.0349307 0.119777
v 0.606952 -0.0412434 0.127549
v 0.634305 -0.0709815 0.120651
v 0.653393 -0.0467481 0.0887778
v 0.668332 -0.0365932 0.0300482
v 0.66391 -0.0205596 0.0783446
v 0.675018 -0.0283755 0.032461
v 0.690288 -0.0435529 0.0956904
v 0.675336 -0.0496471 0.0828599
v 0.683651 -0.0484011 0.0407905
v 0.691579 -0.0324741 0.0764944
v 0.688919 -0.0297498 0.0511963
v 0.683178 -0.0225726 0.0806928
v 0.68103 -0.00987291 0.0782851
v 0.577269 -0.0343476 0.172955
v 0.365868 -0.00854692 0.379219
v 0.310709 0.0174938 0.35887
v 0.271708 0.052895 0.376996
v 0.243911 0.0936821 0.392462
v 0.556519 -0.0132408 0.202781
v 0.568421 -0.0363356 0.198283
v 0.57731 -0.0617314 0.144692
v 0.581398 -0.0618224 0.179309
v 0.237833 0.0151677 0.420728
v 0.205446 0.103627 0.417509
v 0.462672 0.101481 0.328956
v 0.520376 0.0763035 0.282549
v 0.55735 -0.0401487 0.217091
v 0.60352 -0.0779889 0.180352
v 0.59067 -0.104241 0.0573816
v 0.599223 -0.112228 0.0853251
v 0.614247 -0.0990566 0.085041
v 0.601129 -0.0815001 0.0844116
v 0.586312 -0.0849361 0.0842168
v 0.587153 -0.0633173 0.116256
v 0.609934 -0.0983011 0.117794
v 0.595849 -0.0936311 0.147511
v 0.611503 -0.0723439 0.120594
v 0.610733 -0.0834561 0.10756
v 0.624408 -0.0908372 0.149312
v 0.63411 -0.0719842 0.121575
v 0.667605 -0.0771932 0.100536
v 0.499323 0.0413968 0.232382
v 0.499275 0.0433181 0.233256
v 0.442668 0.0137495 0.379836
v 0.416372 0.0492063 0.410331
v 0.388721 0.0166608 0.410015
v 0.200223 0.0612497 0.410772
v 0.226494 0.0699947 0.407309
v 0.651814 -0.079823 0.151395
v 0.686485 -0.0535829 0.124417
v 0.692617 -0.0703396 0.0994176
v 0.694177 -0.0591959 0.0775863
v 0.696765 -0.0732885 0.0561933
v 0.689981 -0.0804634 0.0382131
v 0.675103 -0.06855 0.0629611
v 0.687994 -0.0611968 0.029267
v 0.343266 0.00871901 0.349233
v 0.178094 0.127993 0.419531
v 0.0847354 0.0985756 0.344591
v 0.20691 0.0399079 0.435736
v 0.322856 -0.00400103 0.461468
v 0.398803 0.107926 0.393793
v 0.682277 -0.0183124 0.117544
v 0.665994 0.00326359 0.143003
v 0.132656 0.0887231 0.340948
v 0.179529 0.0296138 0.400613
v 0.208033 -0.00560911 0.481839
v 0.663299 -0.0347764 0.074384
v 0.686914 -0.0462176 0.0122454
v 0.679038 -0.0456174 -0.0172138
v 0.672828 -0.0460541 0.0561369
v 0.633681 -0.000946557 0.1101
v 0.254149 -0.012042 0.517211
v 0.188598 -0.00566234 0.463291
v 0.160863 0.0560055 0.352369
v 0.193247 0.0714319 0.395473
v -0.00461276 0.0683223 0.217466
v 0.00914574 0.080988 0.310779
v 0.0443695 0.075654 0.280477
v 0.0966993 0.0622561 0.310211
v 0.100606 0.0486701 0.281909
v 0.16285 0.013997 0.368893
v 0.187702 -0.0346435 0.498723
v 0.201776 -0.0238606 0.536937
v 0.188269 -0.0402562 0.536754
v 0.171579 -0.0235729 0.42456
v 0.151732 0.011168 0.314912
v 0.136982 0.0375834 0.317643
v 0.147876 0.0741339 0.340714
v 0.0356775 0.0676556 0.195106
v 0.0625843 0.0612011 0.249461
v 0.17072 -0.0319322 0.578232
v 0.186592 -0.0192355 0.597828
v 0.142728 -0.06484 0.572313
v 0.130811 -0.0169476 0.617125
v 0.116637 -0.001981 0.645005
v 0.0508423 -0.0159927 0.643252
v 0.0867189 0.00548936 0.814331
v 0.0934225 0.0287577 0.839041
v 0.0932945 0.0273159 0.84792
v 0.0145691 -0.105697 0.858923
v -0.0191127 -0.102306 0.892042
v -0.0328254 0.12951 0.420159
v -0.02541 0.0725413 0.267327
v 0.00519939 0.0767986 0.136909
v 0.112242 0.0447908 0.226318
v -0.00383758 -0.0393542 0.620334
v 0.150548 -0.0333485 0.301065
v -0.000954848 -0.0702507 -0.074656
v 0.00854695 -0.038551 -0.0691405
v 0.00132135 -0.0725651 -0.0754817
v -0.00100639 -0.075021 -0.0760697
v -0.0183272 -0.173124 -0.0280835
v -0.0165002 -0.177637 0.0215709
v -0.0122468 -0.0766089 0.717219
v -0.0100748 -0.0472528 0.712151
v -0.00358454 -0.107493 0.768165
v 0.0901922 0.0141669 0.861395
v 0.0897928 0.0141094 0.860929
v 0.0908321 0.019616 0.858151
v 0.0776205 -0.00151993 0.834942
v 0.0915572 0.021416 0.857369
v 0.181097 0.0951534 0.387666
v -0.00469091 -0.117616 0.833927
v 0.0488809 -0.0843101 0.846442
v 0.0507852 -0.0833793 0.845167
v 0.0492097 -0.0863156 0.844277
v 0.049965 -0.084125 0.846114
v 0.0514327 -0.0843259 0.845427
v 0.0505838 -0.0863621 0.846721
v 0.260506 -0.189129 -0.902808
v -0.0518974 -0.0828697 0.844642
v -0.0671326 -0.0646562 0.864097
v -0.027909 -0.100764 0.779068
v -0.0461182 -0.0752289 0.757623
v -0.028373 -0.0940244 0.767038
v -0.0619266 0.0301632 0.80547
v -0.0606008 0.0200278 0.743114
v -0.0715528 -0.00524404 0.794013
v -0.0206305 -0.0988178 0.76809
v -0.0191875 -0.09978 0.767895
v -0.00523954 -0.106402 0.767988
v -0.0238764 -0.0960078 0.767016
v -0.023567 -0.0965323 0.767892
v -0.0113554 -0.105218 0.768699
v -0.0309579 -0.0436465 0.726849
v -0.0116813 0.00313837 -0.0776759
v -0.0168439 -0.161649 -0.0599067
v -0.0255012 -0.126052 -0.0788079
v -0.0118808 -0.144308 -0.0789339
v -0.269585 0.00428938 -0.752691
v -0.271928 0.0403217 -0.841797
v -0.274548 -0.0183522 -0.822128
v -0.203624 0.0617162 -0.865911
v -0.191393 0.032114 -0.856085
v -0.197645 -0.011195 -0.88901
v -0.18674 0.012633 -0.844326
v -0.208064 0.00118795 -0.91974
v -0.227248 -0.00400832 -0.92759
v -0.226821 0.074295 -0.89653
v -0.256967 0.0585563 -0.880453
v -0.240036 0.0617534 -0.849004
v -0.341137 -0.148566 -0.908472
v -0.328604 -0.154717 -0.913955
v -0.326168 -0.148735 -0.907498
v -0.318269 -0.11734 -0.892948
v -0.27462 -0.168149 -0.905567
v -0.260589 -0.189107 -0.902795
v -0.282701 -0.172396 -0.899879
v -0.312537 -0.162855 -0.90554
v -0.295781 -0.15153 -0.891149
v -0.327957 -0.155128 -0.917424
v -0.327877 -0.153939 -0.918024
v -0.320548 -0.175018 -0.919812
v -0.315051 -0.167603 -0.913385
v -0.296429 -0.170617 -0.906922
v -0.298743 -0.176654 -0.911969
v -0.29853 -0.174353 -0.909891
v -0.298903 -0.17609 -0.915502
v -0.312918 -0.163932 -0.915373
v -0.313661 -0.165636 -0.913896
v -0.320133 -0.174498 -0.919997
v -0.313073 -0.163555 -0.91898
v -0.313274 -0.164252 -0.918741
v -0.312426 -0.163323 -0.919106
v -0.327229 -0.151571 -0.917898
v -0.327025 -0.152017 -0.91802
v -0.325355 -0.146781 -0.917348
v -0.311966 -0.1639 -0.919737
v -0.298055 -0.174657 -0.91894
v -0.2799 -0.177591 -0.919059
v -0.280529 -0.178088 -0.918826
v -0.278649 -0.178765 -0.912165
v -0.275472 -0.191058 -0.906159
v -0.276534 -0.194091 -0.908067
v -0.27506 -0.168256 -0.905512
v -0.279864 -0.176063 -0.919257
v -0.258101 -0.171566 -0.926103
v -0.272851 -0.199763 -0.915832
v -0.247779 -0.1849 -0.91934
v -0.277116 -0.195865 -0.909736
v -0.280383 -0.177729 -0.91895
v -0.297792 -0.173709 -0.919438
v -0.297562 -0.171526 -0.92034
v -0.242593 -0.164285 -0.902804
v -0.25877 -0.189296 -0.902956
v -0.279433 -0.179421 -0.914717
v -0.277945 -0.104742 -0.929939
v -0.228243 -0.122512 -0.888244
v -0.24148 -0.106178 -0.865835
v -0.338538 -0.118344 -0.911686
v -0.257596 -0.0817102 -0.844079
v -0.311723 -0.070465 -0.888436
v -0.227171 -0.0938313 -0.919231
v -0.280107 -0.0766195 -0.853652
v -0.239573 -0.0589066 -0.920823
v -0.257644 -0.0167199 -0.928141
v -0.292362 -0.0178168 -0.902243
v -0.299024 -0.0427127 -0.916983
v -0.214175 -0.0645755 -0.898589
v -0.269352 0.00698435 -0.921499
v -0.233833 -0.0399238 -0.809968
v -0.243311 0.0443072 -0.927017
v -0.270365 0.0307447 -0.908067
v -0.20391 -0.0288727 -0.859949
v -0.282771 -0.000179878 -0.860715
v -0.220821 0.0660556 -0.81227
v -0.201259 -0.0113361 -0.82686
v -0.185057 0.0193268 -0.772182
v -0.26232 0.0485147 -0.772579
v -0.244303 0.0689452 -0.73311
v -0.20139 -0.0170752 -0.769271
v -0.189885 0.0576298 -0.734158
v -0.220719 0.0758401 -0.703271
v -0.253282 -0.0210372 -0.787609
v -0.223969 -0.0269851 -0.777
v -0.233828 -0.0533382 -0.649305
v -0.257164 -0.0407324 -0.614538
v -0.212809 -0.0438992 -0.69865
v -0.273269 0.0258501 -0.691014
v -0.260455 0.0656445 -0.654329
v -0.175655 -0.0127608 -0.684642
v -0.160879 0.0596257 -0.64434
v -0.166766 0.0313576 -0.692599
v -0.225106 0.0807822 -0.632691
v -0.141735 0.00557247 -0.620753
v -0.277436 0.0294615 -0.599724
v -0.189952 0.07667 -0.654907
v -0.272561 -0.000861698 -0.600278
v -0.250107 0.0757298 -0.582971
v -0.189424 -0.0568643 -0.632183
v -0.20291 -0.0757172 -0.575378
v -0.141639 -0.0336301 -0.566588
v -0.257448 -0.0333049 -0.516757
v -0.237042 0.0802814 -0.546723
v -0.1313 0.0235732 -0.564226
v -0.229856 -0.0922854 -0.504908
v -0.246416 -0.0670412 -0.528408
v -0.149723 -0.0592096 -0.512733
v -0.176552 0.0734739 -0.517425
v -0.131036 -0.0132261 -0.558767
v -0.230419 0.0522224 -0.488138
v -0.15679 0.0436793 -0.496166
v -0.135556 0.00571362 -0.502751
v -0.19564 0.0611987 -0.477932
v -0.177844 -0.0773832 -0.516637
v -0.195142 -0.096858 -0.494962
v -0.245109 -0.0027901 -0.469079
v -0.245589 -0.0426488 -0.402647
v -0.173704 0.0401871 -0.446592
v -0.130569 -0.0290865 -0.489687
v -0.195143 0.0429066 -0.442395
v -0.143306 -0.0833071 -0.443298
v -0.237308 -0.0800514 -0.416441
v -0.224452 0.0198367 -0.452473
v -0.235362 0.0184564 -0.386995
v -0.212459 0.0368791 -0.414368
v -0.138268 0.00418683 -0.458686
v -0.130493 0.0181193 -0.415332
v -0.107362 -0.0251726 -0.40633
v -0.12653 -0.0518869 -0.439389
v -0.190919 -0.11337 -0.450065
v -0.156056 -0.110051 -0.401205
v -0.208077 -0.11007 -0.403132
v -0.128256 0.0571491 -0.355954
v -0.174353 -0.113451 -0.376112
v -0.167885 0.0613247 -0.385919
v -0.0898355 -0.000517473 -0.362786
v -0.0985943 -0.0658851 -0.359324
v -0.220196 -0.0940326 -0.343214
v -0.242705 -0.0746056 -0.338773
v -0.238688 0.0110123 -0.304679
v -0.0860863 0.0353372 -0.300178
v -0.1124 -0.11787 -0.288269
v -0.250973 -0.0456712 -0.345323
v -0.231572 -0.0815957 -0.210096
v -0.199945 0.072446 -0.341655
v -0.214617 0.0516332 -0.162865
v -0.185923 0.0858902 -0.192211
v -0.0412906 0.0164155 -0.169207
v -0.0407588 -0.0746424 -0.186905
v -0.157476 0.0883373 -0.13736
v -0.051283 -0.12197 -0.117374
v -0.0935349 -0.131674 -0.15175
v -0.0706426 -0.0992444 -0.221219
v -0.101596 -0.142168 -0.0929739
v -0.167597 -0.109422 0.0546116
v -0.184869 -0.0734796 0.0518954
v -0.0971603 0.0900523 -0.0976525
v -0.103614 0.0861027 -0.12053
v -0.128051 -0.123563 0.102408
v -0.179146 -0.017565 0.0754684
v -0.133823 0.092724 -0.0859745
v -0.158736 0.0864324 -0.0570251
v -0.107656 0.0911443 -0.200016
v -0.0407202 0.0651179 -0.0988857
v -0.0796957 0.0703363 -0.200247
v -0.0232516 -0.0680449 -0.109992
v -0.129098 -0.148653 -0.0230395
v -0.145802 -0.0950967 0.13533
v -0.165586 0.0494004 0.0464893
v -0.0321332 0.0786758 -0.0909323
v -0.0824495 -0.15178 0.0719229
v -0.0622424 -0.151628 -0.0683233
v -0.126635 0.112764 -0.00333604
v -0.0450204 -0.148287 -0.0692678
v -0.0660263 -0.161117 -0.0193307
v -0.0514268 -0.163405 0.10763
v -0.056614 -0.169641 0.199574
v -0.102723 -0.137189 0.169003
v -0.0696464 -0.168691 0.264899
v -0.163659 -0.0528789 0.134884
v -0.0851552 -0.140051 0.475321
v -0.143296 0.0192869 0.166347
v -0.162835 -0.0218049 0.160491
v -0.131639 0.0660901 0.121596
v -0.0462475 0.0806346 0.133841
v -0.114669 0.0499647 0.163357
v -0.149735 -0.0569958 0.249539
v -0.153384 -0.0113302 0.211416
v -0.147001 0.053358 0.110326
v -0.0833442 -0.156406 0.334918
v -0.0988616 -0.132898 0.412337
v -0.126523 -0.106675 0.39565
v -0.137191 -0.0933715 0.275262
v -0.116919 -0.130595 0.245897
v -0.124786 -0.107752 0.446126
v -0.0766961 -0.137635 0.455923
v -0.109788 -0.127742 0.326861
v -0.143062 -0.0638872 0.364777
v -0.0730866 0.0695873 0.161662
v -0.0524191 0.121019 0.0691743
v -0.10823 0.114721 0.0578696
v -0.0499898 -0.154598 0.424279
v -0.036515 -0.143393 0.489436
v -0.0447454 -0.173418 0.326882
v -0.0513626 -0.118834 0.543825
v -0.0320113 -0.0863141 0.574601
v -0.0639898 -0.0845535 0.585918
v -0.151882 -0.0258478 0.310184
v -0.143534 0.00126082 0.268419
v -0.12837 0.0330959 0.215767
v -0.105785 0.0498781 0.213105
v -0.011052 -0.0776353 -0.0761286
v -0.0465543 -0.090054 0.848709
v -0.0413971 -0.0940413 0.842632
v -0.0190405 -0.0904471 0.846794
v -0.0190181 -0.0901334 0.845112
v -0.0193694 -0.0907405 0.847305
v -0.0175733 -0.094392 0.846346
v -0.0199083 -0.0903993 0.847542
v -0.0213547 -0.0902897 0.846327
v -0.014062 -0.10854 0.794705
v -0.0174542 -0.0902474 0.845216
v -0.0130074 -0.122744 0.800922
v -0.0404452 -0.060146 0.735198
v -0.0803413 -0.0103582 0.841556
v -0.0786834 -0.0271909 0.868648
v -0.0761846 0.000339934 0.833654
v -0.0778226 -0.00122944 0.841034
v -0.0755518 0.000507275 0.833059
v -0.0789845 0.00859863 0.823758
v -0.0798161 -0.00156905 0.853548
v -0.0875708 0.00711317 0.84483
v -0.0806811 0.000379071 0.855889
v -0.078903 -0.0029361 0.849805
v -0.0786657 -0.00294481 0.849207
v -0.0825067 0.00249673 0.857078
v -0.0782592 -0.00322779 0.848229
v -0.0778736 -0.00145475 0.841525
v -0.0792945 -0.00315436 0.817671
v -0.679619 -0.0304863 0.0061534
v -0.677766 -0.0392919 -0.0162364
v -0.668976 0.00303332 0.0465426
v -0.67559 0.00819807 0.0974599
v -0.661809 0.00966367 0.0829241
v -0.654739 -0.0140525 -0.00753233
v -0.662204 -0.0178359 0.0406627
v -0.651841 -0.0113979 0.0295376
v -0.655127 0.00139257 0.042371
v -0.675641 -0.0119734 0.0527528
v -0.681654 -0.0225913 0.0793351
v -0.655307 0.0283769 0.0687836
v -0.645529 0.0270411 0.0238789
v -0.644434 0.016977 0.0173533
v -0.632026 0.0247027 0.0117467
v -0.316857 0.00306148 0.476179
v -0.34788 0.0336727 0.466083
v -0.372472 0.0102635 0.425764
v -0.452204 0.0409692 0.251373
v -0.47763 0.0679217 0.255226
v -0.466313 0.00125314 0.277647
v -0.529825 -0.0167279 0.225629
v -0.4735 0.0190901 0.243427
v -0.454706 -0.00309503 0.316819
v -0.561445 -0.0427409 0.227789
v -0.516087 -0.017124 0.29944
v -0.586263 -0.0418045 0.24029
v -0.605654 -0.0103144 0.241982
v -0.621188 -0.0595926 0.205937
v -0.20243 0.123009 0.429165
v -0.165215 0.100665 0.375217
v -0.0410186 0.0927361 0.343827
v -0.0405024 0.122285 0.382491
v -0.296628 0.0728992 0.529227
v -0.304714 0.0267341 0.509737
v -0.601923 0.00132402 0.143065
v -0.604822 0.0236316 0.159007
v -0.587779 0.00684114 0.167108
v -0.335788 0.0429703 0.337702
v -0.333621 0.0210028 0.34527
v -0.388476 0.0450593 0.289128
v -0.351032 0.108101 0.365711
v -0.316079 0.0974757 0.381904
v -0.344339 0.0721271 0.335653
v -0.315526 0.0828846 0.502087
v -0.287609 0.109633 0.510454
v -0.277907 0.127677 0.451077
v -0.361466 0.118149 0.403212
v -0.325684 0.104168 0.461068
v -0.341066 0.115634 0.396475
v -0.297492 0.119154 0.412375
v -0.370372 0.0218325 0.320082
v -0.577077 0.0461359 0.239509
v -0.627037 0.0159779 0.196868
v -0.616211 0.0273615 0.175731
v -0.566389 0.0401233 0.215561
v -0.572961 0.0208021 0.194441
v -0.626318 0.0188842 0.119091
v -0.0426687 -0.0993598 0.869402
v -0.05813 -0.0120141 0.743392
v -0.0452273 -0.0219397 0.686044
v -0.0238863 -0.0295697 0.696009
v -0.0240934 -0.028393 0.64857
v -0.0627777 0.0326592 0.696118
v -0.0517383 0.0653217 0.715941
v -0.0992569 0.0465708 0.688366
v -0.0409985 0.052344 0.757806
v -0.0298631 0.0760773 0.722527
v -0.0711484 0.0199837 0.91153
v -0.0572249 0.0616368 0.852765
v -0.042668 0.0545756 0.806875
v -0.0813494 0.0279838 0.850076
v -0.0720633 0.0448621 0.873064
v -0.0186234 0.0580511 0.786207
v -0.0932776 0.0982765 0.680784
v -0.112365 0.0795619 0.685802
v -0.0552486 -0.0015858 0.672312
v -0.0781616 0.0212528 0.820467
v -0.0922994 0.0233567 0.826849
v -0.0821218 0.0101863 0.862262
v -0.0431672 -0.0695182 0.92263
v -0.0921623 0.0220961 0.825318
v -0.0890696 0.00955419 0.812078
v -0.0732852 -0.0316826 0.907264
v -0.0328136 0.12386 0.651211
v -0.0925106 0.120019 0.655549
v -0.177181 0.0852351 0.653326
v -0.182252 0.0541065 0.659428
v -0.170002 0.10236 0.639554
v -0.105495 0.132768 0.615858
v -0.25391 -0.0103093 0.591341
v -0.203367 -0.0255054 0.587658
v -0.107759 0.155459 0.540189
v -0.139816 0.135436 0.592907
v -0.286949 0.00299601 0.51398
v -0.249553 -0.0145938 0.514805
v -0.239506 0.100076 0.607949
v -0.281632 0.0608847 0.582385
v -0.358918 0.0718062 0.447004
v -0.377275 0.104408 0.410653
v -0.517356 0.00200065 0.322952
v -0.556632 0.00501733 0.294449
v -0.638307 0.0315513 0.117665
v -0.61334 -0.0280748 0.135685
v -0.648162 -0.059615 0.102402
v -0.637285 -0.00988127 0.105278
v -0.383762 0.00666858 0.335367
v -0.421366 0.00700767 0.301444
v -0.244915 0.116914 0.562684
v -0.271939 0.09864 0.55439
v -0.18227 0.133968 0.553946
v -0.0615223 0.155641 0.510159
v -0.170534 0.149615 0.481615
v -0.227096 0.124922 0.525535
v -0.195724 0.139586 0.492786
v -0.265382 0.103818 0.5336
v -0.291921 0.0851217 0.372624
v -0.455836 0.0210315 0.3811
v -0.496902 0.0341827 0.35428
v -0.559433 -0.00858038 0.20087
v -0.695698 -0.0670338 0.00887196
v -0.692057 -0.0544067 0.0924074
v -0.684624 -0.0584199 0.0507675
v -0.677669 -0.0705618 0.0433151
v -0.68078 -0.0226825 0.0785653
v -0.669765 -0.043221 0.0587103
v -0.674154 -0.0500409 0.02876
v -0.688693 -0.0452887 0.044179
v -0.683988 -0.049294 -0.00101829
v -0.690892 -0.0527175 0.0928674
v -0.690946 -0.0346957 0.053708
v -0.686135 -0.0191313 0.100403
v -0.688171 -0.0395858 0.11473
v -0.655037 -0.0528237 0.175797
v -0.668927 -0.0188408 0.150012
v -0.558406 -0.00862458 0.201459
v -0.483923 -0.0125213 0.310158
v -0.403253 0.00952205 0.376526
v -0.452395 0.00762917 0.369283
v -0.253089 0.12684 0.412155
v -0.281821 0.0634658 0.37153
v -0.25137 0.0418967 0.39413
v -0.570365 -0.0314077 0.194112
v -0.585058 -0.016506 0.171017
v -0.58389 -0.0327165 0.151176
v -0.575773 -0.0500171 0.198256
v -0.583116 -0.069333 0.168477
v -0.577023 -0.063709 0.140003
v -0.357996 -0.0117367 0.393188
v -0.233943 0.100064 0.400592
v -0.235891 0.0133454 0.424151
v -0.274997 -0.0163695 0.449503
v -0.416087 0.0523364 0.410179
v -0.604592 -0.0740484 0.186928
v -0.611436 -0.0850101 0.105636
v -0.59473 -0.11124 0.0757907
v -0.594274 -0.111033 0.0764691
v -0.606461 -0.107715 0.0945563
v -0.596424 -0.089206 0.0652797
v -0.601537 -0.0810951 0.0847399
v -0.584146 -0.0972833 0.0824675
v -0.588141 -0.077292 0.0994384
v -0.600268 -0.061996 0.117233
v -0.617526 -0.0941308 0.138583
v -0.625741 -0.072704 0.12329
v -0.631929 -0.0829562 0.138019
v -0.660035 -0.078167 0.112191
v -0.626634 -0.0579205 0.121297
v -0.604096 -0.0355299 0.132711
v -0.504402 0.0794123 0.275276
v -0.401755 0.0305412 0.409922
v -0.350543 -0.00314785 0.361586
v -0.208109 0.0768113 0.417328
v -0.404781 0.089994 0.401877
v -0.643453 -0.0803642 0.163969
v -0.690008 -0.0675631 0.112359
v -0.679444 -0.077062 0.112878
v -0.6771 -0.0485867 0.0813982
v -0.667063 -0.0578352 0.0807732
v -0.681004 -0.0788572 0.050172
v -0.693931 -0.0777446 0.0510628
v -0.683705 -0.0750064 0.00370668
v -0.588012 -0.046516 0.127175
v -0.52568 0.062257 0.315044
v -0.0803327 0.099393 0.346065
v -0.204294 0.0234167 0.450115
v -0.294842 -0.0111767 0.471951
v -0.477722 0.0775795 0.352833
v -0.528998 0.0344715 0.220748
v -0.0555668 0.0776452 0.302383
v -0.0876161 0.0676831 0.314571
v -0.187398 0.0500212 0.394869
v -0.180335 0.0133184 0.417426
v -0.208574 -0.0118394 0.497738
v -0.220407 -0.0111402 0.478586
v -0.639519 0.0250192 0.0780062
v -0.636094 0.0222542 0.053094
v -0.641887 0.0116317 0.0514136
v -0.647226 0.0100627 0.0841068
v -0.631202 0.0173847 0.0261932
v -0.660547 -0.000907007 0.00546077
v -0.655627 -0.00663257 0.0695872
v -0.650661 -0.0169487 0.0841275
v -0.646561 -0.00391565 0.00269264
v -0.664736 -0.0433457 0.0759492
v -0.679659 -0.0313964 0.00163057
v -0.683065 -0.0502461 -0.00281511
v -0.667457 -0.0435149 0.00583998
v -0.189845 -0.0321848 0.554924
v -0.175719 -0.0465502 0.482188
v -0.176527 -0.026084 0.448443
v -0.178942 0.0751162 0.375885
v -0.1288 0.0669373 0.323988
v -0.0770238 0.0586665 0.271315
v -0.151206 0.0272859 0.334928
v -0.164078 -0.0166447 0.384087
v -0.1172 0.039863 0.286125
v -0.22068 -0.0301184 0.551323
v -0.189508 -0.0311679 0.557112
v -0.158964 -0.0169765 0.600921
v -0.14376 -0.0693951 0.566036
v -0.0545964 0.0629879 0.212678
v -0.0917529 -0.0320054 0.619854
v -0.162403 0.00153888 0.634072
v -0.181709 0.0216734 0.650874
v -0.123983 0.0250068 0.662146
v -0.0576997 -0.0078582 0.645526
v -0.0772247 -0.000735895 0.834462
v -0.0826991 0.0105637 0.862169
v -0.0527387 -0.0893015 0.856337
v -0.0484233 -0.0843763 0.846555
v -0.048617 -0.088325 0.847781
v -0.0413323 -0.0946539 0.850299
v -0.0401364 -0.0957173 0.850956
v -0.0413359 -0.0948731 0.851072
v -0.0851422 -0.0058148 0.644169
v -0.0341299 -0.0484149 0.616734
v -0.0779751 -0.00315266 0.847476
v -0.0869254 0.00644761 0.844276
v -0.049219 -0.0842363 0.84638
v -0.0507244 -0.0860283 0.846323
v -0.048706 -0.084234 0.846262
v -0.0510147 -0.0857036 0.846196
v -0.0508327 -0.0862493 0.84656
v -0.051716 -0.0842279 0.84554
v -0.0508306 -0.0850899 0.845902
v 0.182776 0.0690136 -0.676404
v 0.118872 -0.124242 0.280546
v -0.657301 0.0186191 0.0594543
# </points>

# <edges count="4500">
l 441 442
l 440 441
l 443 444
l 448 446
l 451 449
l 456 452
l 453 456
l 456 457
l 457 458
l 455 459
l 456 450
l 459 450
l 450 460
l 451 452
l 460 452
l 2 3
l 1 2
l 3 1
l 464 462
l 5 4
l 465 5
l 4 465
l 4 6
l 6 466
l 466 4
l 6 5
l 5 467
l 467 6
l 7 5
l 5 468
l 468 7
l 5 8
l 8 467
l 7 8
l 469 9
l 9 465
l 6 470
l 470 466
l 8 471
l 7 472
l 472 8
l 464 472
l 7 464
l 474 475
l 477 10
l 10 476
l 477 473
l 478 477
l 477 479
l 480 478
l 481 480
l 477 482
l 482 10
l 481 475
l 483 481
l 478 475
l 485 486
l 484 485
l 487 486
l 11 488
l 487 11
l 11 475
l 485 11
l 483 489
l 11 489
l 11 490
l 490 491
l 492 491
l 491 12
l 12 480
l 493 491
l 492 493
l 493 12
l 493 482
l 482 480
l 492 482
l 494 10
l 482 494
l 495 476
l 476 494
l 496 476
l 494 496
l 492 494
l 497 492
l 13 484
l 486 13
l 484 498
l 501 499
l 504 502
l 502 503
l 501 504
l 501 505
l 505 488
l 488 501
l 507 500
l 506 507
l 510 511
l 511 512
l 510 513
l 513 511
l 507 512
l 14 500
l 507 14
l 514 500
l 13 514
l 498 13
l 509 498
l 507 503
l 502 507
l 499 503
l 506 499
l 13 505
l 505 500
l 498 490
l 498 497
l 497 496
l 515 516
l 516 513
l 518 475
l 479 474
l 476 519
l 519 479
l 479 476
l 496 15
l 15 519
l 16 17
l 17 520
l 520 16
l 16 513
l 513 17
l 515 518
l 474 517
l 474 521
l 479 522
l 521 479
l 522 521
l 523 520
l 17 523
l 18 522
l 519 18
l 524 525
l 19 524
l 525 19
l 523 19
l 19 520
l 17 526
l 18 527
l 527 522
l 525 527
l 18 525
l 529 522
l 530 517
l 528 532
l 532 529
l 467 527
l 527 20
l 20 467
l 523 466
l 469 523
l 526 469
l 469 466
l 471 527
l 20 524
l 524 470
l 470 20
l 526 533
l 534 526
l 535 530
l 531 535
l 471 532
l 471 472
l 536 471
l 537 472
l 530 538
l 538 516
l 533 539
l 536 540
l 540 535
l 537 463
l 540 537
l 541 468
l 465 541
l 543 465
l 542 543
l 544 534
l 545 540
l 533 546
l 538 546
l 535 547
l 549 464
l 464 541
l 539 550
l 551 463
l 552 541
l 553 549
l 541 553
l 548 554
l 556 551
l 462 556
l 545 557
l 557 547
l 545 551
l 551 558
l 558 557
l 550 21
l 21 559
l 22 552
l 560 22
l 23 550
l 555 23
l 561 556
l 25 553
l 24 25
l 553 24
l 562 24
l 24 552
l 22 562
l 23 21
l 25 561
l 561 553
l 24 26
l 26 25
l 27 28
l 28 563
l 563 27
l 547 564
l 29 557
l 558 29
l 30 561
l 565 30
l 561 565
l 31 561
l 25 31
l 562 26
l 22 32
l 32 562
l 26 33
l 33 25
l 32 28
l 27 32
l 29 566
l 564 29
l 31 33
l 567 31
l 33 567
l 562 568
l 568 26
l 554 570
l 564 571
l 571 570
l 34 566
l 29 34
l 565 35
l 34 565
l 35 34
l 565 36
l 36 35
l 568 32
l 32 572
l 572 568
l 566 571
l 34 573
l 574 33
l 26 574
l 575 23
l 23 569
l 27 576
l 572 27
l 569 37
l 37 575
l 38 569
l 570 38
l 577 574
l 578 576
l 38 37
l 570 39
l 39 38
l 571 39
l 568 579
l 40 38
l 39 40
l 580 573
l 567 577
l 581 567
l 567 574
l 582 576
l 583 37
l 38 583
l 571 41
l 41 39
l 42 41
l 571 42
l 584 41
l 42 584
l 581 585
l 586 577
l 587 579
l 41 43
l 43 39
l 588 579
l 590 578
l 589 590
l 40 43
l 591 40
l 43 591
l 41 592
l 592 43
l 594 593
l 590 594
l 595 596
l 44 587
l 582 44
l 597 583
l 591 597
l 598 584
l 580 599
l 45 580
l 585 45
l 581 600
l 598 592
l 46 596
l 595 46
l 46 598
l 582 594
l 601 582
l 583 47
l 47 48
l 48 583
l 49 46
l 595 49
l 50 599
l 580 50
l 602 585
l 600 602
l 51 602
l 586 51
l 52 586
l 588 52
l 48 603
l 590 48
l 603 590
l 604 592
l 53 46
l 49 53
l 605 598
l 598 54
l 54 605
l 602 606
l 601 55
l 56 601
l 55 56
l 594 55
l 594 57
l 57 55
l 597 47
l 605 604
l 53 54
l 54 46
l 606 50
l 50 45
l 45 606
l 58 602
l 51 58
l 50 607
l 608 50
l 606 608
l 58 606
l 44 56
l 609 44
l 56 609
l 49 599
l 610 49
l 599 610
l 611 606
l 58 611
l 612 59
l 59 60
l 60 612
l 47 603
l 613 59
l 54 61
l 61 62
l 62 54
l 53 61
l 53 614
l 614 61
l 63 615
l 611 63
l 616 47
l 597 64
l 64 616
l 604 64
l 605 64
l 617 63
l 63 613
l 618 65
l 65 57
l 57 618
l 619 64
l 64 620
l 618 616
l 66 67
l 62 66
l 67 62
l 66 620
l 620 67
l 68 62
l 61 68
l 614 70
l 69 614
l 70 69
l 71 70
l 614 71
l 622 71
l 71 607
l 623 624
l 624 609
l 65 625
l 72 65
l 625 72
l 68 66
l 626 68
l 68 69
l 69 626
l 71 627
l 627 70
l 607 73
l 73 622
l 607 608
l 608 73
l 628 611
l 612 629
l 629 613
l 630 616
l 619 630
l 66 74
l 75 66
l 74 75
l 631 74
l 66 631
l 631 68
l 622 627
l 615 632
l 75 620
l 633 70
l 76 632
l 629 76
l 612 624
l 620 634
l 75 634
l 631 635
l 636 631
l 626 637
l 638 627
l 622 638
l 73 639
l 639 622
l 73 628
l 77 628
l 632 77
l 76 78
l 78 632
l 630 640
l 640 621
l 74 641
l 641 75
l 636 643
l 643 642
l 637 635
l 633 637
l 644 629
l 645 646
l 647 645
l 648 646
l 645 624
l 618 649
l 649 625
l 634 641
l 650 634
l 77 651
l 651 628
l 79 77
l 77 78
l 78 79
l 76 80
l 80 78
l 652 76
l 76 644
l 644 652
l 652 80
l 623 648
l 82 81
l 81 653
l 653 82
l 85 83
l 83 84
l 84 85
l 656 654
l 654 655
l 658 659
l 660 657
l 661 662
l 662 663
l 665 638
l 660 665
l 666 654
l 86 656
l 655 86
l 88 664
l 664 87
l 87 88
l 89 657
l 638 89
l 89 90
l 90 657
l 89 639
l 639 90
l 638 88
l 88 635
l 655 668
l 668 667
l 91 83
l 85 91
l 83 668
l 668 84
l 81 656
l 86 81
l 669 91
l 670 669
l 91 670
l 669 1
l 1 671
l 92 91
l 669 92
l 83 92
l 672 83
l 92 672
l 93 81
l 81 667
l 667 93
l 82 656
l 636 87
l 87 643
l 635 87
l 633 638
l 77 94
l 94 651
l 79 94
l 80 673
l 673 78
l 640 674
l 674 618
l 675 95
l 95 641
l 93 653
l 2 676
l 676 3
l 2 670
l 677 2
l 1 670
l 678 679
l 79 673
l 680 79
l 681 646
l 683 649
l 682 683
l 97 96
l 674 97
l 96 674
l 97 650
l 650 98
l 98 97
l 675 82
l 653 675
l 667 672
l 672 684
l 92 671
l 671 3
l 3 685
l 686 687
l 688 687
l 689 690
l 692 690
l 694 693
l 695 99
l 99 694
l 696 695
l 696 100
l 100 697
l 697 696
l 698 101
l 101 699
l 698 700
l 689 698
l 693 689
l 693 701
l 703 440
l 701 703
l 704 705
l 706 705
l 701 442
l 707 698
l 442 707
l 698 442
l 101 707
l 697 101
l 442 697
l 102 709
l 449 102
l 709 710
l 103 710
l 709 103
l 103 711
l 711 710
l 712 713
l 104 712
l 713 104
l 714 715
l 446 716
l 717 716
l 719 718
l 718 686
l 720 718
l 686 721
l 722 721
l 722 723
l 724 723
l 725 723
l 726 724
l 726 725
l 717 727
l 726 717
l 721 725
l 712 728
l 729 711
l 103 729
l 732 730
l 730 731
l 735 733
l 734 735
l 736 733
l 737 738
l 737 105
l 105 739
l 740 741
l 742 740
l 740 743
l 743 741
l 745 733
l 744 745
l 107 740
l 740 106
l 106 107
l 107 743
l 746 107
l 107 108
l 108 746
l 745 106
l 744 748
l 747 744
l 749 750
l 750 741
l 751 752
l 109 751
l 752 109
l 110 753
l 111 110
l 753 111
l 113 112
l 753 113
l 112 753
l 754 755
l 756 754
l 759 757
l 758 759
l 114 115
l 757 114
l 115 757
l 762 760
l 761 762
l 764 765
l 763 764
l 765 766
l 766 760
l 769 767
l 767 116
l 116 768
l 749 770
l 771 749
l 770 771
l 117 773
l 773 772
l 772 117
l 774 119
l 119 118
l 118 774
l 775 776
l 776 774
l 120 775
l 774 120
l 729 777
l 777 778
l 779 729
l 781 732
l 782 121
l 122 782
l 121 122
l 783 784
l 777 783
l 125 123
l 124 125
l 123 124
l 125 126
l 126 123
l 785 126
l 126 778
l 125 786
l 786 126
l 127 782
l 128 127
l 782 128
l 127 121
l 128 124
l 124 127
l 126 129
l 129 123
l 784 787
l 787 788
l 783 789
l 789 787
l 790 777
l 778 784
l 784 785
l 125 715
l 125 791
l 791 715
l 791 128
l 128 130
l 130 791
l 125 128
l 131 121
l 127 131
l 132 131
l 131 124
l 124 132
l 133 787
l 792 133
l 787 792
l 789 134
l 134 792
l 789 135
l 135 134
l 793 790
l 794 778
l 778 795
l 796 794
l 795 796
l 796 797
l 798 796
l 136 797
l 796 136
l 136 799
l 799 797
l 800 801
l 799 800
l 715 801
l 802 130
l 130 782
l 782 137
l 137 802
l 137 119
l 774 137
l 119 138
l 138 118
l 119 139
l 139 138
l 140 132
l 132 123
l 123 140
l 803 141
l 129 803
l 141 129
l 133 804
l 142 133
l 792 142
l 143 135
l 789 143
l 135 805
l 805 134
l 806 144
l 144 807
l 142 808
l 807 142
l 809 810
l 793 809
l 811 145
l 145 146
l 146 811
l 812 147
l 147 145
l 145 812
l 814 810
l 813 814
l 815 816
l 148 815
l 816 148
l 817 142
l 142 816
l 817 808
l 815 817
l 135 149
l 149 805
l 818 810
l 819 147
l 150 810
l 810 151
l 151 150
l 150 143
l 143 810
l 152 143
l 150 152
l 152 135
l 821 817
l 820 821
l 148 153
l 153 815
l 149 153
l 148 149
l 151 818
l 818 154
l 154 151
l 155 823
l 822 155
l 825 823
l 823 824
l 824 825
l 764 826
l 826 827
l 760 753
l 761 156
l 156 828
l 828 756
l 756 829
l 829 828
l 830 756
l 828 830
l 831 832
l 117 834
l 770 834
l 117 770
l 771 750
l 771 835
l 835 836
l 836 157
l 157 837
l 838 832
l 828 839
l 826 114
l 114 840
l 825 757
l 823 819
l 819 822
l 841 152
l 150 841
l 759 152
l 841 759
l 759 149
l 149 152
l 153 759
l 842 153
l 158 817
l 843 158
l 817 843
l 158 844
l 844 820
l 846 820
l 844 845
l 847 843
l 843 848
l 841 757
l 758 849
l 849 842
l 851 158
l 843 851
l 851 844
l 159 852
l 845 159
l 763 849
l 853 854
l 854 762
l 855 755
l 857 157
l 856 857
l 157 856
l 771 859
l 858 771
l 860 859
l 770 860
l 772 860
l 861 772
l 773 862
l 160 861
l 863 160
l 862 863
l 862 865
l 865 864
l 866 867
l 867 868
l 871 869
l 870 871
l 872 869
l 868 874
l 875 873
l 160 876
l 769 877
l 877 855
l 853 839
l 839 878
l 853 879
l 161 765
l 762 161
l 763 162
l 162 849
l 161 163
l 163 765
l 879 880
l 880 854
l 878 879
l 164 877
l 769 164
l 860 881
l 876 882
l 860 876
l 876 883
l 883 884
l 165 885
l 885 878
l 878 165
l 166 163
l 161 166
l 850 163
l 166 850
l 847 163
l 886 166
l 166 880
l 880 886
l 165 167
l 167 885
l 168 877
l 164 168
l 887 169
l 169 856
l 888 887
l 170 888
l 887 170
l 113 110
l 858 113
l 110 858
l 830 881
l 881 882
l 890 889
l 889 884
l 171 172
l 173 171
l 172 173
l 891 172
l 171 891
l 174 172
l 891 174
l 171 892
l 892 175
l 175 891
l 173 892
l 173 893
l 172 893
l 894 172
l 174 894
l 891 895
l 895 174
l 176 175
l 892 176
l 896 894
l 895 896
l 883 175
l 176 883
l 892 897
l 898 892
l 900 899
l 899 894
l 895 883
l 901 897
l 864 903
l 903 902
l 863 177
l 177 899
l 896 863
l 898 884
l 176 898
l 884 176
l 905 859
l 859 904
l 178 838
l 838 179
l 179 178
l 906 178
l 178 907
l 908 768
l 768 906
l 906 908
l 908 164
l 180 855
l 877 180
l 161 854
l 854 166
l 763 163
l 163 162
l 910 909
l 168 751
l 110 887
l 888 110
l 889 754
l 890 833
l 898 890
l 901 898
l 182 181
l 181 911
l 911 182
l 184 912
l 183 184
l 912 183
l 913 912
l 184 913
l 913 914
l 915 916
l 916 185
l 185 915
l 903 916
l 865 917
l 188 186
l 187 188
l 186 187
l 189 186
l 188 189
l 189 918
l 918 186
l 187 916
l 916 188
l 913 915
l 915 914
l 864 177
l 888 835
l 170 835
l 906 832
l 832 178
l 768 832
l 919 829
l 850 920
l 851 850
l 190 851
l 920 190
l 159 921
l 921 852
l 159 191
l 191 921
l 159 190
l 190 191
l 165 751
l 751 167
l 923 168
l 164 923
l 179 924
l 907 179
l 169 924
l 179 169
l 181 833
l 890 181
l 183 925
l 837 183
l 926 741
l 925 926
l 926 837
l 831 181
l 182 831
l 116 889
l 833 116
l 889 767
l 113 905
l 905 112
l 111 887
l 192 887
l 111 192
l 192 169
l 192 924
l 168 752
l 927 191
l 191 920
l 920 927
l 922 928
l 885 929
l 922 885
l 827 840
l 760 111
l 112 156
l 156 753
l 156 904
l 904 830
l 830 156
l 746 743
l 742 745
l 746 193
l 193 744
l 108 194
l 194 193
l 193 108
l 106 108
l 106 194
l 747 746
l 743 749
l 741 734
l 734 742
l 875 734
l 748 736
l 738 748
l 739 195
l 195 875
l 875 739
l 737 867
l 748 930
l 930 865
l 865 748
l 735 196
l 197 735
l 196 197
l 195 196
l 735 195
l 197 105
l 737 197
l 739 867
l 866 930
l 198 873
l 873 931
l 931 198
l 871 199
l 931 871
l 199 931
l 200 199
l 871 200
l 200 201
l 201 199
l 201 868
l 932 201
l 198 868
l 872 931
l 873 872
l 930 933
l 933 870
l 934 747
l 834 747
l 112 904
l 766 192
l 111 766
l 764 192
l 764 924
l 923 822
l 935 923
l 929 936
l 938 909
l 909 937
l 937 938
l 939 940
l 942 943
l 941 942
l 928 944
l 944 937
l 929 945
l 929 109
l 109 935
l 935 202
l 202 946
l 946 947
l 945 946
l 928 948
l 944 949
l 950 937
l 950 951
l 952 941
l 950 943
l 942 951
l 954 947
l 954 811
l 811 955
l 203 947
l 956 203
l 954 956
l 203 204
l 204 947
l 666 948
l 957 956
l 955 957
l 813 809
l 809 958
l 958 813
l 811 202
l 202 145
l 814 955
l 779 959
l 731 780
l 796 960
l 960 794
l 960 718
l 796 718
l 798 718
l 961 205
l 962 961
l 205 962
l 799 205
l 799 688
l 687 801
l 802 104
l 104 130
l 802 776
l 776 708
l 775 99
l 775 694
l 775 963
l 120 963
l 120 702
l 702 963
l 120 118
l 964 120
l 118 964
l 131 206
l 206 121
l 207 131
l 132 207
l 140 208
l 208 132
l 939 966
l 943 665
l 968 943
l 663 665
l 85 204
l 203 85
l 677 956
l 781 676
l 677 959
l 84 204
l 661 949
l 971 972
l 209 973
l 974 209
l 975 98
l 95 975
l 98 95
l 976 95
l 675 976
l 977 978
l 452 210
l 210 461
l 444 210
l 210 705
l 211 461
l 979 211
l 461 979
l 451 211
l 211 449
l 980 981
l 801 980
l 981 801
l 801 722
l 724 981
l 980 714
l 794 728
l 712 729
l 727 719
l 717 720
l 983 717
l 984 982
l 985 920
l 212 94
l 79 212
l 758 115
l 115 849
l 773 934
l 195 105
l 105 196
l 872 875
l 925 872
l 706 444
l 706 445
l 213 703
l 986 213
l 704 443
l 440 213
l 443 440
l 213 443
l 709 730
l 730 103
l 710 441
l 454 450
l 987 214
l 214 695
l 215 776
l 695 215
l 215 214
l 214 776
l 696 988
l 696 989
l 990 214
l 216 990
l 991 216
l 708 991
l 776 992
l 992 991
l 991 776
l 708 989
l 989 990
l 677 958
l 958 959
l 708 104
l 935 812
l 812 202
l 510 217
l 217 515
l 993 217
l 901 911
l 181 901
l 901 890
l 901 902
l 883 160
l 160 896
l 869 912
l 914 869
l 187 185
l 218 994
l 995 218
l 998 996
l 996 997
l 1000 1001
l 999 1000
l 219 998
l 997 219
l 998 1002
l 1003 998
l 219 1004
l 220 1006
l 1005 220
l 1002 220
l 220 1003
l 1003 1002
l 1007 996
l 972 1009
l 1011 1012
l 1012 1010
l 1013 1014
l 1015 1013
l 1017 221
l 221 1016
l 222 221
l 1017 222
l 223 221
l 222 223
l 221 224
l 224 1016
l 223 224
l 1019 1018
l 1017 1019
l 1018 222
l 1020 1021
l 1021 223
l 223 1020
l 225 1022
l 1022 224
l 224 225
l 225 1023
l 1023 1024
l 1027 1025
l 1025 1026
l 1028 1025
l 1030 1031
l 1027 1032
l 1032 1033
l 1033 1027
l 1027 226
l 226 1034
l 1026 226
l 1034 1026
l 1035 1034
l 1032 1036
l 1037 1032
l 1036 1037
l 1034 1036
l 1031 1033
l 1039 1031
l 1040 1038
l 1033 1040
l 1039 1041
l 1039 1040
l 1040 227
l 227 1041
l 1043 1037
l 227 1032
l 1043 227
l 1036 1044
l 1044 1045
l 1036 1046
l 1046 1037
l 1046 1047
l 1048 1049
l 228 1048
l 1049 228
l 229 1048
l 1035 229
l 1048 1050
l 1049 1050
l 1044 1049
l 1050 1051
l 230 1047
l 1051 230
l 1047 231
l 231 1050
l 1045 231
l 1047 1045
l 1043 1047
l 230 1043
l 1041 1052
l 1031 1054
l 1054 1053
l 232 1031
l 1039 232
l 1055 1056
l 1056 1030
l 1057 1056
l 1055 1057
l 1055 1029
l 233 1053
l 1060 233
l 233 1061
l 1061 1053
l 1062 233
l 234 1061
l 233 234
l 1061 1063
l 1063 1053
l 235 1059
l 1053 235
l 1064 1054
l 235 1064
l 1066 1060
l 1068 1067
l 1030 1068
l 234 1068
l 1057 1061
l 236 1061
l 1057 236
l 236 1063
l 1069 1055
l 1053 1069
l 1069 1063
l 232 1054
l 1052 1065
l 232 1052
l 1065 232
l 1066 1065
l 1066 230
l 1060 1070
l 1070 237
l 237 1060
l 1067 1071
l 1071 1072
l 1025 1073
l 229 1025
l 1073 229
l 229 1050
l 1066 1070
l 237 238
l 1062 237
l 238 1062
l 1031 1074
l 1074 1033
l 1075 1073
l 239 1050
l 1073 239
l 1076 237
l 1076 238
l 1028 1077
l 240 1073
l 1075 240
l 1078 1076
l 1070 239
l 1079 1070
l 239 1079
l 1081 240
l 240 1080
l 239 240
l 1081 239
l 1021 1078
l 1079 1021
l 1082 1076
l 1081 1083
l 1020 1078
l 1020 1082
l 1072 1084
l 1015 1075
l 1083 1085
l 1085 1079
l 241 1083
l 1083 1086
l 1086 241
l 241 1085
l 1088 1075
l 1080 1086
l 241 1023
l 225 241
l 1085 223
l 1019 1087
l 1023 1086
l 1023 1014
l 1089 1022
l 1016 1022
l 1090 1087
l 1019 1091
l 1014 1092
l 1093 1024
l 1094 1090
l 1095 1017
l 1016 1095
l 1096 1089
l 1093 1096
l 1099 1097
l 1098 1099
l 1100 1013
l 1096 1016
l 1101 1098
l 1094 1101
l 1102 1092
l 1013 1102
l 1103 1093
l 1092 1103
l 1091 1104
l 1104 1094
l 1095 1105
l 1106 1091
l 1102 242
l 242 1092
l 1107 1093
l 243 1104
l 1108 243
l 1106 1108
l 1102 1109
l 1109 242
l 1107 1096
l 1110 1096
l 1111 1109
l 1103 1112
l 244 1110
l 1107 244
l 245 1110
l 244 245
l 245 1105
l 246 1108
l 1106 246
l 1107 247
l 247 244
l 246 1105
l 1105 248
l 248 246
l 243 249
l 249 1104
l 1114 1101
l 1101 1113
l 1113 1114
l 1115 243
l 1115 249
l 1111 1116
l 1112 1117
l 1117 247
l 247 1112
l 246 1118
l 249 250
l 1113 249
l 250 1113
l 1119 1100
l 1099 1119
l 1111 1120
l 251 1109
l 1116 251
l 251 252
l 252 1109
l 253 1117
l 1112 253
l 254 247
l 1117 254
l 1121 250
l 249 1121
l 1120 1100
l 255 252
l 251 255
l 255 253
l 253 252
l 254 1122
l 256 254
l 1122 256
l 1108 1123
l 1123 1115
l 1124 253
l 255 1124
l 257 1122
l 1125 257
l 1118 257
l 1126 1118
l 257 1126
l 1127 1122
l 254 1127
l 1128 250
l 1119 1114
l 1114 1129
l 1130 251
l 258 1124
l 1127 258
l 1116 1131
l 1127 1132
l 1132 1122
l 1121 1115
l 1115 1133
l 1127 1134
l 1128 1135
l 259 1119
l 1129 259
l 259 260
l 260 1119
l 1120 260
l 260 1116
l 1116 1136
l 1137 1138
l 1139 1137
l 1130 1138
l 1133 1126
l 1126 1140
l 1141 1140
l 1142 1133
l 1143 1133
l 1143 1121
l 1145 1144
l 1144 1129
l 1146 259
l 259 1144
l 1146 260
l 1132 1147
l 1147 1141
l 261 1145
l 1135 261
l 1148 1144
l 1148 1146
l 1132 1149
l 1140 1150
l 1143 1151
l 1152 1146
l 1153 1136
l 1154 1138
l 1147 1155
l 261 1156
l 1138 262
l 262 1139
l 1149 263
l 263 1147
l 261 264
l 264 1156
l 1154 262
l 1157 266
l 265 1157
l 266 265
l 267 263
l 1149 267
l 268 1145
l 1156 268
l 269 1152
l 1148 269
l 1158 266
l 1157 1153
l 1153 1158
l 267 1159
l 1159 270
l 270 267
l 271 1147
l 263 271
l 271 1155
l 272 273
l 1151 272
l 273 1151
l 274 1152
l 269 274
l 275 263
l 267 275
l 275 271
l 272 1150
l 1150 276
l 276 272
l 277 273
l 272 277
l 1160 262
l 1161 270
l 270 262
l 262 1161
l 275 270
l 278 275
l 270 278
l 1162 276
l 276 1155
l 1163 273
l 277 1163
l 279 266
l 1158 279
l 279 280
l 280 266
l 265 280
l 281 265
l 280 281
l 1164 270
l 277 276
l 1162 277
l 282 283
l 268 282
l 283 268
l 269 283
l 282 269
l 1167 1165
l 1165 1166
l 268 1168
l 1168 282
l 279 284
l 284 280
l 285 286
l 274 285
l 286 274
l 279 286
l 286 284
l 286 287
l 287 1169
l 1169 286
l 284 1170
l 288 284
l 1170 288
l 1160 289
l 1161 1160
l 289 1161
l 1163 1165
l 1169 1170
l 284 1169
l 1160 290
l 290 289
l 1171 1172
l 1164 1171
l 285 287
l 1173 287
l 291 1173
l 287 291
l 292 288
l 288 1174
l 1174 292
l 292 290
l 290 288
l 1175 1164
l 1177 1172
l 1178 1177
l 1178 293
l 293 1179
l 1179 1178
l 1163 1180
l 285 1181
l 1181 287
l 1182 1169
l 1183 290
l 292 1183
l 294 1171
l 1175 294
l 1184 1172
l 1184 1178
l 291 1185
l 1182 1170
l 294 295
l 295 1171
l 1165 1186
l 1186 1168
l 1187 1176
l 296 294
l 1175 296
l 647 1184
l 1171 647
l 1009 293
l 1009 1162
l 1162 293
l 1188 1186
l 1165 1188
l 1189 1181
l 1186 1189
l 1188 1010
l 1010 975
l 1189 976
l 1190 1191
l 1191 1193
l 1193 1192
l 1194 1170
l 1183 297
l 297 1187
l 299 296
l 296 298
l 298 299
l 299 294
l 299 295
l 1191 653
l 300 1195
l 301 300
l 1195 301
l 1174 1197
l 302 1198
l 1199 302
l 1198 1200
l 1202 303
l 303 1201
l 1196 1198
l 1198 1203
l 1203 1196
l 1197 1202
l 1202 1196
l 1204 1205
l 1206 1204
l 304 1207
l 1207 303
l 303 304
l 1197 303
l 1203 297
l 1183 1203
l 1198 297
l 1194 303
l 304 1208
l 1193 1204
l 1208 1193
l 1204 1208
l 305 1205
l 1204 305
l 1210 1195
l 1205 1210
l 1209 1205
l 1207 1211
l 1212 1207
l 1200 1213
l 1213 1199
l 1215 302
l 302 1214
l 306 1215
l 1214 306
l 305 1216
l 307 301
l 301 308
l 308 307
l 1195 1217
l 1217 308
l 308 1195
l 1210 1216
l 1216 1217
l 1193 1218
l 1208 1192
l 1182 304
l 304 1194
l 1187 1215
l 306 1187
l 306 309
l 298 306
l 309 298
l 652 295
l 299 652
l 1011 682
l 653 1218
l 93 1218
l 1216 1218
l 684 1217
l 1219 308
l 1220 1221
l 1219 1220
l 1221 1219
l 1221 310
l 310 307
l 307 1221
l 300 1209
l 1222 1201
l 1223 1202
l 1224 1196
l 1200 1224
l 1225 1200
l 1214 309
l 681 1184
l 1011 1165
l 1180 1011
l 1226 682
l 1010 98
l 976 975
l 671 1219
l 1217 671
l 1227 1228
l 311 1227
l 1228 311
l 1229 312
l 312 1230
l 1230 1229
l 1229 1231
l 312 313
l 313 1233
l 1233 312
l 1229 313
l 1232 1227
l 312 1234
l 1230 1235
l 1236 1232
l 986 1232
l 314 986
l 1236 314
l 444 1237
l 1237 1235
l 1237 986
l 314 1237
l 1228 994
l 218 315
l 315 997
l 997 218
l 316 1238
l 977 316
l 316 997
l 997 1238
l 316 219
l 315 1240
l 1240 1239
l 1239 315
l 1243 1241
l 1241 1242
l 1242 1244
l 1246 1245
l 1247 1246
l 1248 1245
l 1245 1249
l 1239 1250
l 1250 1248
l 1252 1251
l 317 1239
l 1241 317
l 1253 1239
l 317 1253
l 1254 318
l 319 1254
l 318 319
l 1255 319
l 320 1255
l 319 320
l 1258 1256
l 1256 1257
l 1260 1259
l 321 1260
l 1259 321
l 322 1259
l 1260 322
l 321 1261
l 1258 1262
l 323 1263
l 1263 1264
l 1264 323
l 1266 1267
l 1265 1266
l 1268 324
l 324 1266
l 1266 1268
l 1271 1269
l 1270 1271
l 325 1272
l 1273 325
l 1274 1275
l 1275 1276
l 1279 1280
l 326 1281
l 1282 326
l 1283 327
l 1284 1283
l 327 1284
l 1285 1286
l 1286 845
l 1288 328
l 328 1287
l 1291 1289
l 1293 1294
l 1294 1292
l 1295 1296
l 329 1298
l 1299 329
l 1298 1299
l 1301 1302
l 1300 1301
l 1303 1304
l 1295 1303
l 1293 1305
l 1306 1307
l 1307 330
l 330 1306
l 1306 1308
l 1309 1290
l 1310 1291
l 1311 1289
l 331 1312
l 1312 964
l 964 331
l 1238 1313
l 1008 1238
l 1238 332
l 332 1313
l 1314 1315
l 1313 1314
l 1314 1316
l 1316 1315
l 1318 1319
l 1319 1317
l 1317 1000
l 1320 1321
l 1318 1320
l 334 333
l 333 1322
l 1322 334
l 1324 1323
l 335 1324
l 1323 335
l 1325 1326
l 1326 1323
l 1323 1325
l 336 333
l 334 336
l 1320 1324
l 1327 804
l 1329 1318
l 1328 1329
l 1330 1313
l 1331 1323
l 999 1331
l 1332 1325
l 1331 1332
l 337 1325
l 1332 337
l 1240 338
l 338 1333
l 339 340
l 340 1322
l 1322 339
l 1334 341
l 341 339
l 339 1334
l 1334 139
l 139 341
l 206 340
l 340 341
l 341 206
l 335 803
l 803 1327
l 804 342
l 342 1321
l 1335 1331
l 1001 343
l 343 1335
l 1332 1335
l 1335 1336
l 338 1337
l 1322 338
l 138 1334
l 964 138
l 206 207
l 207 340
l 334 207
l 208 334
l 207 208
l 336 208
l 140 336
l 141 335
l 140 141
l 335 140
l 1338 342
l 1339 342
l 1339 1328
l 1328 342
l 1340 1329
l 1328 1340
l 1341 1329
l 1339 1342
l 1342 1328
l 1339 1343
l 1338 344
l 344 1339
l 1338 144
l 1344 345
l 345 1345
l 1344 346
l 346 345
l 806 344
l 344 1346
l 1343 344
l 1347 1343
l 1346 1347
l 348 1344
l 1344 347
l 347 348
l 1344 349
l 349 346
l 350 1348
l 1349 350
l 346 1348
l 350 346
l 1344 351
l 351 349
l 348 351
l 1341 352
l 352 348
l 348 1341
l 1340 352
l 1340 1342
l 1350 1340
l 1342 1350
l 353 1342
l 1347 353
l 344 821
l 821 1346
l 352 1351
l 351 352
l 1351 351
l 354 1351
l 352 354
l 328 349
l 351 328
l 329 1352
l 1353 1302
l 1295 355
l 355 356
l 356 1295
l 355 1297
l 1297 325
l 325 355
l 1294 357
l 357 1276
l 1354 1280
l 1354 1355
l 1355 326
l 326 1280
l 1355 1281
l 358 1281
l 1355 358
l 1356 1308
l 1290 1356
l 1357 1311
l 1358 1359
l 1311 1290
l 357 1360
l 1360 1361
l 1361 357
l 357 1305
l 1294 1297
l 1287 1298
l 1270 1288
l 1298 1270
l 1348 349
l 349 1288
l 354 1362
l 1363 354
l 1362 1363
l 354 1350
l 353 1362
l 1350 353
l 1364 1362
l 353 1364
l 359 1346
l 1346 1365
l 1365 359
l 1365 846
l 1346 1366
l 1364 1346
l 1366 1364
l 1367 1364
l 1369 1362
l 1363 1287
l 1287 1351
l 1363 1369
l 1368 360
l 360 1367
l 359 1366
l 1286 361
l 361 965
l 362 361
l 1286 362
l 363 359
l 361 363
l 359 361
l 364 1302
l 1302 1299
l 1299 364
l 364 1300
l 365 1296
l 1304 365
l 1370 1297
l 1371 1354
l 1372 1355
l 1373 1291
l 1374 1375
l 1376 1374
l 366 1376
l 1377 366
l 318 1378
l 1379 318
l 1381 1382
l 1384 1381
l 1381 1383
l 1383 1384
l 1385 1254
l 1384 1385
l 1378 1254
l 1388 1386
l 1387 1388
l 1389 1373
l 1391 1390
l 1391 1392
l 1393 1304
l 1395 1293
l 1394 1395
l 1292 1394
l 1397 1373
l 1396 1398
l 1398 1397
l 1399 1400
l 1401 1399
l 1391 1402
l 1402 367
l 367 1391
l 1393 1283
l 1283 1403
l 1393 368
l 368 1283
l 1368 368
l 368 360
l 1404 369
l 1395 1404
l 369 1395
l 370 371
l 1405 370
l 371 1405
l 370 369
l 369 371
l 372 1371
l 1406 372
l 1371 1406
l 1389 1276
l 1389 1396
l 374 373
l 1408 374
l 373 1408
l 375 376
l 376 377
l 377 375
l 1411 1409
l 1409 1410
l 1411 375
l 375 1409
l 373 375
l 1411 373
l 374 375
l 374 1412
l 1412 375
l 374 1413
l 1413 1412
l 377 1414
l 1409 377
l 1412 1415
l 1410 378
l 378 1411
l 1416 1413
l 1401 379
l 379 1414
l 1414 1401
l 379 378
l 1410 379
l 1417 1411
l 378 1417
l 1408 1418
l 1417 1419
l 1420 1418
l 1419 1420
l 1421 1416
l 1422 1416
l 1400 379
l 1400 378
l 1310 1276
l 1423 1309
l 1306 1423
l 1372 1371
l 372 1372
l 1392 1424
l 1424 1371
l 1371 1392
l 1360 1402
l 1425 370
l 370 1402
l 1425 369
l 1370 1403
l 1403 1394
l 1370 365
l 365 1403
l 1426 1403
l 1404 371
l 1427 372
l 382 380
l 381 382
l 380 381
l 1399 1275
l 1278 1407
l 378 1428
l 1428 1417
l 1428 1429
l 1429 1430
l 1430 1428
l 1429 1387
l 1386 1429
l 1428 1387
l 1385 1386
l 1386 1375
l 1375 1383
l 1432 1376
l 1376 1431
l 1377 1432
l 383 384
l 1434 383
l 384 1434
l 383 1374
l 1374 384
l 383 1375
l 1429 383
l 1434 1429
l 366 1374
l 384 385
l 386 384
l 385 386
l 1377 1435
l 1435 366
l 1374 385
l 1434 386
l 386 1433
l 1433 1435
l 1434 1430
l 1358 1418
l 1421 1358
l 1357 1422
l 1422 1436
l 358 1437
l 330 358
l 1437 330
l 358 1372
l 1372 1437
l 1277 1361
l 1425 1305
l 1297 1394
l 1368 1366
l 387 327
l 1283 387
l 363 387
l 387 359
l 363 327
l 362 363
l 362 1438
l 388 362
l 1438 388
l 940 1285
l 327 362
l 388 327
l 1395 1426
l 1439 1404
l 1440 367
l 1402 1440
l 1271 367
l 1270 1406
l 1427 382
l 382 1441
l 1441 1427
l 389 1423
l 1423 380
l 380 389
l 389 1273
l 1442 1273
l 1272 1442
l 1280 1282
l 1282 1387
l 1428 1282
l 390 1388
l 1387 390
l 1388 391
l 391 1385
l 1307 391
l 1388 1307
l 393 391
l 391 392
l 392 393
l 1257 391
l 393 1257
l 1281 1387
l 1277 1278
l 380 394
l 356 380
l 394 356
l 382 394
l 1406 1352
l 1352 1427
l 966 1443
l 1444 1438
l 1438 1285
l 1446 1439
l 1439 1445
l 1447 1448
l 1448 1404
l 1349 1440
l 1405 1349
l 382 1353
l 1301 382
l 1427 1353
l 1278 1390
l 1307 390
l 390 1281
l 1307 392
l 1449 1356
l 1311 1449
l 1450 1449
l 1452 1451
l 1258 1451
l 1268 1449
l 1450 1453
l 1453 1268
l 395 324
l 1268 395
l 1267 324
l 395 1267
l 1451 1453
l 1265 1356
l 1265 393
l 393 1356
l 1257 1385
l 1454 322
l 322 1263
l 323 1454
l 1456 1455
l 1260 1456
l 1264 1260
l 396 1457
l 321 396
l 1457 321
l 396 1454
l 396 1259
l 1457 1262
l 1261 1457
l 1380 1458
l 1431 1380
l 1459 1382
l 1384 1459
l 1255 1459
l 1459 1254
l 1255 1460
l 1460 1382
l 1460 1380
l 1460 320
l 320 1461
l 318 1461
l 1461 319
l 1456 1359
l 1358 1456
l 1359 1449
l 392 1308
l 1356 392
l 1272 1294
l 1276 1272
l 325 1294
l 1301 394
l 1440 1348
l 1348 1269
l 1446 1464
l 1464 1463
l 1284 1466
l 1466 1465
l 1465 1284
l 1284 388
l 388 1466
l 1444 1443
l 1467 1444
l 1443 1467
l 1468 1445
l 1465 1468
l 1463 1447
l 1446 1469
l 1469 1464
l 1470 1466
l 1471 1462
l 1345 1472
l 1473 1345
l 397 1473
l 1474 397
l 1462 1474
l 1474 1472
l 1462 398
l 398 1474
l 1462 399
l 399 398
l 1213 1470
l 1467 1475
l 966 1475
l 939 1199
l 1199 1475
l 1225 1470
l 1469 1222
l 397 1476
l 347 1345
l 1477 347
l 1345 1477
l 1471 1349
l 1471 350
l 345 1471
l 1477 1478
l 1478 347
l 1319 1478
l 1476 1477
l 1480 1330
l 1480 1314
l 978 1315
l 731 978
l 1008 1315
l 1481 1241
l 1481 317
l 1481 1253
l 1253 1336
l 343 1253
l 1336 343
l 1482 1325
l 337 1482
l 1482 1333
l 1240 1337
l 995 1337
l 1240 995
l 1337 331
l 331 1334
l 995 331
l 995 1483
l 1483 1312
l 1227 400
l 400 1484
l 1485 400
l 1227 1486
l 1486 1483
l 401 1486
l 1486 1487
l 1487 401
l 401 1488
l 1232 1487
l 1486 1232
l 1232 402
l 402 1487
l 1488 402
l 702 1312
l 702 964
l 807 1338
l 1464 1212
l 1206 1209
l 1463 1206
l 399 1463
l 1209 399
l 1489 1316
l 1476 1316
l 1220 969
l 1490 1221
l 1476 310
l 1474 307
l 310 1474
l 1474 301
l 398 300
l 301 398
l 1009 681
l 1012 96
l 97 1012
l 444 979
l 979 210
l 979 1007
l 1004 979
l 1007 1004
l 1482 1246
l 1491 1249
l 1248 1249
l 1492 1491
l 1239 1242
l 1252 1242
l 1489 1478
l 1405 1448
l 1214 680
l 673 309
l 1453 395
l 1456 1452
l 1455 1262
l 1385 323
l 1257 323
l 986 702
l 1237 213
l 443 1237
l 1235 994
l 218 1235
l 1235 996
l 1484 1494
l 1493 1495
l 1496 1494
l 1497 1496
l 1494 1497
l 1498 1497
l 1497 1483
l 1483 1498
l 1499 1494
l 1498 1496
l 995 315
l 1428 1407
l 1407 1282
l 378 1407
l 1430 1419
l 1401 1436
l 1398 1401
l 1436 1398
l 1378 1456
l 1456 1458
l 1358 1432
l 1432 1458
l 1458 1358
l 713 960
l 447 717
l 710 452
l 705 452
l 678 212
l 212 680
l 4 469
l 491 481
l 486 505
l 15 509
l 508 15
l 14 508
l 512 993
l 14 16
l 16 508
l 513 14
l 14 511
l 993 502
l 512 502
l 508 525
l 525 15
l 501 518
l 15 18
l 508 520
l 516 17
l 530 518
l 521 531
l 516 533
l 537 536
l 534 9
l 529 536
l 9 542
l 548 538
l 542 559
l 544 559
l 555 546
l 549 556
l 541 1500
l 543 560
l 557 564
l 556 30
l 30 558
l 24 1500
l 543 563
l 559 563
l 560 28
l 28 22
l 21 563
l 31 565
l 558 34
l 576 563
l 21 576
l 575 21
l 569 555
l 35 573
l 567 36
l 566 596
l 596 42
l 35 581
l 36 581
l 582 572
l 575 589
l 37 589
l 583 589
l 577 600
l 40 583
l 589 48
l 604 591
l 44 588
l 601 44
l 52 51
l 60 52
l 588 60
l 59 52
l 44 60
l 603 57
l 59 51
l 59 58
l 55 72
l 72 56
l 610 53
l 607 610
l 63 58
l 59 63
l 44 612
l 57 72
l 62 605
l 67 605
l 603 618
l 623 56
l 72 623
l 69 61
l 610 71
l 628 608
l 617 632
l 69 633
l 95 650
l 643 82
l 82 642
l 647 644
l 650 640
l 642 641
l 654 84
l 658 90
l 94 658
l 90 94
l 970 664
l 666 664
l 666 1501
l 662 638
l 88 662
l 643 1501
l 656 643
l 1501 87
l 667 86
l 658 212
l 90 651
l 625 972
l 684 93
l 203 670
l 91 203
l 659 968
l 968 660
l 683 972
l 649 96
l 96 682
l 798 688
l 728 960
l 699 100
l 699 697
l 691 699
l 700 690
l 703 702
l 441 708
l 711 712
l 104 711
l 713 983
l 194 745
l 745 193
l 767 755
l 182 183
l 857 182
l 183 857
l 886 985
l 154 819
l 823 154
l 853 761
l 826 115
l 157 835
l 170 157
l 802 774
l 786 800
l 783 793
l 785 129
l 788 785
l 122 137
l 122 119
l 122 139
l 129 140
l 785 803
l 793 143
l 122 403
l 403 139
l 121 403
l 133 807
l 792 805
l 816 792
l 147 146
l 146 818
l 814 146
l 805 148
l 821 808
l 815 843
l 147 818
l 819 818
l 812 822
l 155 824
l 857 838
l 836 750
l 857 837
l 768 833
l 114 825
l 841 151
l 154 841
l 848 153
l 162 842
l 844 159
l 844 190
l 162 847
l 919 878
l 856 838
l 870 918
l 917 188
l 917 189
l 200 866
l 866 201
l 200 933
l 911 903
l 913 911
l 180 919
l 856 179
l 170 856
l 879 910
l 180 751
l 165 180
l 893 897
l 175 895
l 900 893
l 864 899
l 902 899
l 830 859
l 165 919
l 908 923
l 184 911
l 184 182
l 925 869
l 925 912
l 914 918
l 404 915
l 185 404
l 914 404
l 404 918
l 186 405
l 405 187
l 918 405
l 404 405
l 886 938
l 908 155
l 155 923
l 907 824
l 925 741
l 836 926
l 827 907
l 924 827
l 929 167
l 751 929
l 852 941
l 927 985
l 985 951
l 951 927
l 938 951
l 749 747
l 197 736
l 198 932
l 199 932
l 935 752
l 942 921
l 927 942
l 936 948
l 945 948
l 204 945
l 654 945
l 204 654
l 970 944
l 948 970
l 663 950
l 949 663
l 953 679
l 967 939
l 715 980
l 104 791
l 808 806
l 956 670
l 682 974
l 1010 97
l 709 977
l 102 977
l 1004 102
l 211 1004
l 711 441
l 214 992
l 216 992
l 185 405
l 1003 1007
l 1020 222
l 1085 224
l 1085 225
l 1046 1042
l 1049 1036
l 228 1035
l 228 1034
l 1066 227
l 227 230
l 1053 1058
l 1062 1067
l 234 1062
l 1053 1064
l 238 1067
l 1072 1030
l 238 1071
l 1050 1070
l 1082 238
l 1087 1071
l 1088 1080
l 1082 1018
l 1088 1014
l 1097 1074
l 1097 1077
l 1098 1084
l 1110 1095
l 242 1103
l 1013 1111
l 252 1103
l 252 1112
l 245 248
l 1100 1111
l 244 256
l 256 245
l 254 244
l 248 256
l 257 248
l 256 257
l 248 1118
l 250 1114
l 1118 1123
l 1117 258
l 258 254
l 1133 1123
l 1130 255
l 255 1137
l 1137 1124
l 1132 1125
l 1125 1140
l 1124 1134
l 1121 1135
l 260 1136
l 1159 1134
l 1139 1159
l 1149 1134
l 1135 264
l 1131 1157
l 1157 1154
l 1151 264
l 283 1148
l 1145 283
l 265 1154
l 272 1142
l 262 1159
l 1155 1150
l 274 1153
l 274 1158
l 273 1167
l 1167 264
l 275 1177
l 1177 271
l 1167 1156
l 1154 281
l 281 1160
l 271 1179
l 1179 1155
l 278 1177
l 1156 1166
l 1166 268
l 1164 278
l 285 269
l 282 285
l 286 1158
l 1172 278
l 277 1180
l 1161 1176
l 288 280
l 290 281
l 280 290
l 289 1176
l 1181 282
l 291 1181
l 1181 1185
l 1183 289
l 1173 1192
l 1176 296
l 1185 1192
l 1187 296
l 295 647
l 975 1189
l 1185 1190
l 1192 304
l 1187 298
l 976 1190
l 675 1191
l 1214 1199
l 678 1214
l 1199 678
l 1208 1211
l 1206 1211
l 1215 1198
l 1215 297
l 1218 305
l 1219 307
l 298 673
l 673 299
l 1226 1180
l 1227 994
l 1234 311
l 311 1230
l 1235 314
l 219 102
l 316 102
l 1250 1240
l 1482 1250
l 1492 1242
l 1332 1246
l 1246 1336
l 1336 1492
l 332 315
l 1239 332
l 332 997
l 1455 1261
l 1256 323
l 1265 1257
l 1267 1502
l 1267 1451
l 1289 1357
l 1302 329
l 1274 1361
l 1397 1289
l 333 1323
l 1326 333
l 336 1323
l 340 334
l 336 335
l 1321 1328
l 338 1326
l 1337 339
l 1341 1319
l 403 341
l 403 206
l 345 350
l 348 1478
l 1478 1341
l 1350 352
l 821 1365
l 330 1281
l 1301 1304
l 1351 328
l 361 1365
l 387 1366
l 360 364
l 364 1367
l 1299 1369
l 1392 1279
l 1380 1461
l 1461 1379
l 1384 1386
l 360 1300
l 1425 1360
l 1300 368
l 1393 365
l 1441 1437
l 1441 381
l 381 1437
l 1271 1391
l 1271 1424
l 1423 381
l 1273 1309
l 1310 1442
l 1275 1396
l 1412 376
l 1414 376
l 1414 1410
l 1436 1415
l 1396 1401
l 1306 381
l 372 1441
l 1293 369
l 1405 1402
l 1420 1433
l 1433 1430
l 1435 385
l 386 1435
l 1443 1285
l 389 325
l 356 389
l 1426 1445
l 1426 1465
l 1448 371
l 389 355
l 1257 1502
l 1256 1454
l 1262 1454
l 1458 1379
l 394 1295
l 1223 1468
l 1470 1224
l 1224 1223
l 332 1001
l 1483 1485
l 1488 1312
l 399 300
l 310 397
l 1479 1489
l 1316 1490
l 1226 971
l 209 1226
l 672 1217
l 218 996
l 400 1494
l 1497 400
l 1493 1499
l 1499 1498
l 1498 994
l 442 440
l 444 445
l 445 443
l 446 447
l 447 448
l 450 451
l 449 450
l 453 454
l 454 452
l 452 453
l 455 456
l 452 455
l 456 406
l 406 453
l 457 406
l 458 454
l 453 458
l 458 406
l 457 450
l 450 458
l 459 456
l 460 451
l 460 459
l 455 460
l 452 461
l 461 451
l 462 463
l 463 464
l 465 469
l 471 467
l 475 473
l 473 474
l 476 477
l 473 478
l 479 473
l 478 481
l 478 482
l 475 483
l 486 484
l 485 487
l 487 488
l 488 486
l 475 488
l 489 490
l 490 483
l 489 475
l 491 483
l 407 492
l 491 407
l 480 491
l 480 493
l 494 495
l 408 476
l 495 408
l 408 496
l 496 495
l 407 497
l 485 490
l 498 485
l 500 501
l 499 500
l 503 504
l 504 499
l 500 506
l 509 500
l 508 509
l 500 508
l 512 510
l 511 507
l 509 514
l 514 498
l 515 502
l 504 515
l 506 503
l 505 514
l 497 490
l 496 492
l 509 497
l 513 515
l 475 517
l 517 518
l 496 519
l 518 516
l 521 517
l 519 522
l 526 523
l 524 527
l 528 529
l 522 528
l 523 524
l 531 530
l 517 531
l 466 524
l 533 534
l 532 527
l 472 536
l 464 537
l 467 470
l 516 530
l 539 534
l 535 538
l 536 535
l 531 536
l 463 540
l 468 465
l 465 542
l 539 544
l 463 545
l 542 534
l 544 542
l 546 539
l 533 538
l 548 535
l 547 548
l 541 549
l 550 544
l 546 550
l 462 551
l 541 543
l 555 548
l 554 555
l 547 545
l 551 557
l 556 558
l 559 550
l 552 560
l 550 555
l 556 409
l 409 561
l 552 562
l 554 547
l 564 554
l 566 564
l 570 569
l 569 554
l 570 564
l 573 566
l 569 575
l 576 572
l 568 577
l 574 568
l 576 575
l 575 578
l 579 577
l 581 580
l 573 581
l 577 581
l 578 582
l 585 580
l 579 586
l 582 587
l 579 582
l 587 588
l 588 586
l 578 589
l 593 590
l 584 592
l 580 595
l 596 580
l 583 591
l 596 598
l 584 596
l 599 595
l 600 585
l 594 601
l 602 586
l 598 604
l 606 585
l 607 599
l 612 613
l 615 611
l 597 616
l 597 604
l 613 617
l 620 619
l 617 615
l 619 616
l 616 621
l 621 618
l 607 622
l 609 623
l 618 625
l 615 628
l 630 621
l 626 631
l 632 628
l 627 633
l 632 629
l 624 629
l 634 630
l 630 620
l 635 636
l 637 631
l 628 639
l 631 641
l 642 636
l 626 633
l 629 645
l 645 644
l 646 647
l 645 648
l 624 648
l 634 640
l 641 650
l 623 625
l 625 648
l 655 656
l 659 657
l 657 658
l 659 660
l 663 661
l 661 664
l 664 662
l 638 660
l 638 657
l 656 666
l 638 639
l 635 638
l 667 655
l 654 668
l 637 638
l 671 669
l 672 668
l 618 640
l 641 675
l 670 677
l 659 678
l 679 659
l 673 680
l 652 673
l 648 681
l 649 682
l 684 667
l 671 672
l 685 671
l 410 686
l 687 410
l 686 688
l 411 689
l 690 411
l 691 692
l 690 691
l 693 691
l 691 694
l 693 692
l 694 695
l 695 691
l 691 696
l 699 698
l 700 689
l 699 700
l 693 411
l 411 692
l 701 689
l 702 701
l 693 702
l 440 701
l 440 704
l 705 440
l 704 706
l 442 689
l 707 697
l 708 697
l 442 708
l 709 449
l 710 449
l 713 714
l 715 713
l 716 447
l 716 412
l 412 717
l 446 718
l 718 716
l 686 719
l 719 720
l 721 719
l 686 722
l 723 721
l 722 724
l 724 725
l 724 714
l 714 726
l 727 726
l 726 721
l 728 713
l 731 732
l 733 734
l 735 736
l 738 736
l 736 737
l 739 737
l 741 742
l 733 744
l 740 745
l 748 747
l 741 749
l 755 756
l 757 758
l 765 763
l 766 762
l 762 765
l 764 766
l 767 768
l 774 775
l 778 729
l 729 732
l 732 779
l 732 780
l 780 781
l 784 777
l 778 785
l 788 784
l 787 783
l 777 779
l 779 790
l 715 786
l 792 789
l 790 413
l 413 793
l 795 794
l 797 798
l 796 799
l 798 414
l 414 799
l 799 798
l 801 799
l 800 715
l 782 802
l 804 787
l 807 806
l 808 807
l 810 793
l 810 813
l 816 817
l 814 818
l 812 819
l 817 820
l 823 822
l 827 764
l 753 761
l 828 761
l 755 829
l 833 831
l 832 833
l 834 773
l 749 834
l 836 771
l 837 836
l 831 838
l 839 761
l 840 826
l 757 823
l 759 842
l 844 817
l 820 845
l 845 846
l 848 847
l 842 758
l 847 850
l 850 843
l 852 845
l 826 763
l 849 826
l 762 853
l 769 855
l 755 769
l 855 829
l 859 858
l 771 860
l 770 772
l 773 861
l 862 861
l 861 863
l 864 862
l 868 866
l 869 870
l 871 872
l 874 873
l 873 868
l 874 875
l 876 861
l 878 853
l 879 854
l 881 859
l 882 860
l 884 876
l 884 882
l 856 887
l 881 754
l 754 830
l 889 881
l 882 889
l 884 890
l 892 891
l 893 892
l 894 895
l 897 898
l 899 897
l 897 900
l 896 899
l 900 894
l 883 896
l 899 901
l 902 864
l 899 863
l 904 905
l 907 906
l 908 769
l 885 879
l 886 910
l 909 886
l 751 877
l 833 889
l 914 912
l 915 903
l 903 917
l 917 916
l 903 865
l 865 870
l 870 917
l 913 903
l 863 864
l 835 858
l 858 888
l 855 919
l 922 909
l 910 922
l 924 907
l 925 837
l 750 926
l 767 754
l 927 921
l 928 909
l 929 922
l 923 752
l 824 827
l 840 824
l 733 748
l 744 746
l 747 743
l 741 875
l 867 738
l 748 867
l 867 930
l 875 735
l 868 932
l 870 930
l 934 865
l 862 934
l 934 748
l 934 834
l 822 935
l 936 922
l 940 941
l 941 939
l 943 941
l 937 928
l 945 936
l 929 935
l 935 946
l 946 929
l 947 945
l 948 944
l 950 944
l 949 950
l 951 937
l 941 953
l 953 952
l 942 950
l 946 954
l 955 954
l 946 811
l 947 956
l 948 654
l 954 957
l 811 814
l 813 955
l 413 415
l 415 809
l 809 413
l 790 959
l 959 413
l 729 730
l 446 960
l 797 414
l 961 799
l 962 799
l 688 962
l 801 416
l 416 687
l 688 801
l 708 802
l 775 695
l 695 776
l 693 775
l 963 693
l 965 846
l 845 965
l 966 940
l 952 679
l 967 952
l 679 967
l 665 968
l 943 663
l 957 677
l 781 959
l 779 781
l 676 959
l 969 676
l 781 969
l 676 677
l 970 661
l 949 970
l 972 973
l 973 971
l 973 974
l 973 683
l 683 974
l 685 676
l 969 685
l 978 730
l 730 977
l 705 444
l 722 982
l 982 801
l 980 724
l 722 981
l 728 778
l 712 778
l 959 415
l 719 726
l 417 719
l 727 417
l 417 720
l 727 418
l 418 417
l 419 418
l 727 419
l 418 720
l 419 720
l 419 717
l 420 720
l 717 420
l 720 412
l 716 720
l 420 412
l 726 983
l 686 984
l 982 686
l 410 984
l 410 416
l 801 410
l 415 958
l 850 985
l 875 925
l 703 986
l 445 704
l 705 710
l 441 705
l 449 454
l 987 695
l 696 987
l 988 987
l 989 988
l 987 990
l 990 991
l 990 708
l 988 990
l 989 697
l 515 510
l 510 993
l 902 911
l 994 995
l 997 998
l 421 444
l 443 421
l 1001 999
l 1002 996
l 998 1004
l 1004 1003
l 1005 998
l 1003 1005
l 1006 1005
l 1006 998
l 1002 1007
l 1008 978
l 977 1008
l 1009 648
l 648 972
l 1010 1011
l 1014 1015
l 1016 1017
l 1018 1017
l 1023 1022
l 1024 1022
l 1026 1027
l 1027 1028
l 1031 1029
l 1029 1030
l 1034 1027
l 1026 1035
l 1032 1034
l 1038 1031
l 1033 1038
l 1038 1039
l 1041 422
l 422 1039
l 1040 1041
l 1032 1040
l 1042 1043
l 1037 1042
l 1043 1032
l 1045 1036
l 1047 423
l 423 1046
l 1047 1042
l 1042 423
l 1048 1035
l 1048 424
l 424 1049
l 427 425
l 425 426
l 426 427
l 427 1050
l 1050 425
l 427 1048
l 1050 1044
l 1049 425
l 1049 426
l 1051 1047
l 1047 1050
l 1052 422
l 1052 1039
l 1053 1031
l 1030 1055
l 1029 428
l 1053 1029
l 428 1053
l 1058 428
l 1029 1058
l 1053 1055
l 1060 1053
l 1053 1059
l 1059 1060
l 1060 1062
l 1059 1064
l 1054 1059
l 1065 1059
l 1054 1065
l 1059 1066
l 1067 1030
l 1068 1061
l 1061 1056
l 1063 1057
l 1057 1069
l 1041 1065
l 1041 1066
l 1051 1066
l 1050 1066
l 1072 1067
l 1033 1028
l 1073 1028
l 1028 1075
l 1050 1073
l 1070 1076
l 1072 1074
l 1031 1072
l 1074 1028
l 1077 1075
l 1070 1078
l 1074 1077
l 1080 1081
l 1078 1079
l 1078 1082
l 1083 1079
l 1079 1081
l 1084 1074
l 1077 1015
l 1080 1083
l 1087 1084
l 1072 1087
l 1015 1088
l 1021 1085
l 1087 1018
l 1086 1088
l 1088 1023
l 1014 1024
l 1024 1089
l 1089 1016
l 1019 1090
l 1090 1084
l 1091 1090
l 1092 1024
l 1092 1093
l 1093 1089
l 1091 1094
l 1013 1092
l 1097 1098
l 1013 1099
l 1098 1094
l 1106 1095
l 1105 1106
l 1091 1095
l 1103 1107
l 1104 1108
l 1104 1106
l 1107 1110
l 1102 1111
l 1112 1107
l 1105 1110
l 1114 1099
l 1099 1101
l 1108 1115
l 1116 1109
l 1118 1108
l 1120 1116
l 1119 1120
l 1124 1117
l 1122 1125
l 1121 1128
l 1129 1119
l 1116 1130
l 1124 1127
l 1131 1130
l 1133 1121
l 1134 1132
l 1129 1128
l 1135 1129
l 1136 1131
l 1138 1139
l 1137 1130
l 1140 1133
l 1134 1137
l 1139 1134
l 1132 1141
l 1140 1132
l 1140 1142
l 1142 1143
l 1129 1145
l 1144 1146
l 1145 1135
l 1145 1148
l 1149 1147
l 1150 1142
l 1141 1150
l 1135 1143
l 1148 1152
l 1136 1152
l 1152 1153
l 1138 1131
l 1131 1154
l 1155 1141
l 1156 1145
l 1157 1158
l 1154 1160
l 1155 1162
l 1161 1164
l 1166 1167
l 1167 1163
l 1172 1164
l 1173 1169
l 1164 1176
l 1176 1175
l 1172 1178
l 1180 1165
l 1173 1182
l 1171 1175
l 1171 1184
l 1185 1173
l 1168 1165
l 1183 1187
l 1176 1183
l 1009 1178
l 1184 1009
l 1180 1162
l 1009 1180
l 1181 1186
l 975 1188
l 1185 1189
l 976 1185
l 1191 1192
l 1192 1190
l 1182 1194
l 1174 1170
l 1194 1174
l 653 1193
l 1197 1196
l 1196 1174
l 1198 1199
l 1200 1199
l 1201 1202
l 1196 1200
l 1205 1206
l 1197 1194
l 1208 1207
l 1209 1210
l 1195 1209
l 1211 1212
l 1214 1215
l 1216 1205
l 1217 1210
l 1218 1204
l 1188 1011
l 682 1012
l 684 1216
l 1218 684
l 1217 1219
l 1201 1207
l 1207 1222
l 1223 1201
l 1222 1223
l 1202 1224
l 1224 1225
l 647 681
l 1011 1226
l 429 1232
l 1231 429
l 1232 1231
l 1233 1229
l 1231 1233
l 1227 1233
l 1233 1232
l 1234 1233
l 1227 1234
l 1234 1230
l 430 1230
l 1235 430
l 430 1229
l 429 1236
l 430 1236
l 429 430
l 1235 1236
l 1236 986
l 1235 444
l 994 1230
l 1230 1228
l 1238 977
l 1242 1243
l 1244 1243
l 431 1246
l 1245 431
l 431 1247
l 432 1248
l 1245 432
l 433 1248
l 432 433
l 1249 433
l 433 1245
l 1247 1245
l 1245 1250
l 1250 1247
l 1248 1239
l 434 1252
l 1251 434
l 434 435
l 435 1252
l 1248 1251
l 1251 1239
l 1239 1241
l 1001 1239
l 1253 1001
l 1257 1258
l 1262 1256
l 1267 1265
l 1269 1270
l 1272 1273
l 1276 1274
l 1277 1275
l 1274 1277
l 1280 1278
l 1278 1279
l 845 1285
l 1287 1288
l 1290 1291
l 1289 1290
l 1292 1293
l 1297 1295
l 1296 1297
l 1302 1300
l 1296 1303
l 1304 1296
l 1305 1294
l 1308 1307
l 1309 1308
l 1306 1309
l 1290 1308
l 1290 1310
l 436 1311
l 1289 436
l 1313 1008
l 1000 1313
l 1313 1001
l 1315 1313
l 1317 1318
l 1000 1320
l 1320 1317
l 1321 1318
l 1327 1320
l 1324 1327
l 804 1320
l 804 1321
l 1318 1328
l 1329 1319
l 1000 1330
l 1000 1324
l 999 1323
l 1324 999
l 1325 1331
l 1325 1333
l 1333 1326
l 1333 1240
l 803 1324
l 1001 1335
l 1331 1001
l 1336 1332
l 1337 1322
l 1334 964
l 804 1338
l 1338 1339
l 1340 1341
l 1343 1342
l 806 1338
l 1345 1344
l 1346 1343
l 1348 1349
l 1342 1347
l 1352 1298
l 1301 1353
l 1276 1294
l 1279 1354
l 1355 1280
l 436 1357
l 1358 1311
l 1357 1358
l 1359 1311
l 1305 1360
l 1297 1292
l 1298 1288
l 1288 1348
l 1350 1362
l 965 1365
l 1368 1367
l 1364 1368
l 1364 1369
l 1363 1351
l 1369 1287
l 1367 1369
l 965 1286
l 1369 1298
l 1296 1370
l 1279 1371
l 1354 1372
l 1310 1373
l 1375 1376
l 1376 1377
l 1378 1379
l 1382 1380
l 1380 1381
l 1254 1384
l 1254 1264
l 1264 1378
l 1386 1387
l 1310 1389
l 1277 1391
l 1390 1277
l 1392 1390
l 1304 1300
l 1300 1393
l 1293 1394
l 1396 1397
l 1373 1396
l 1400 1401
l 1275 1389
l 1399 1407
l 1407 1400
l 1410 1411
l 1414 1409
l 1408 1413
l 1414 1412
l 1415 1414
l 1411 1408
l 1408 1416
l 1417 1408
l 1418 1416
l 1415 1413
l 1416 1415
l 1418 1417
l 1419 1418
l 1418 1421
l 1421 1422
l 1391 1424
l 1391 1360
l 1402 1425
l 1394 1370
l 1283 1426
l 1406 1427
l 1278 1399
l 1275 1278
l 1388 1385
l 1375 1429
l 1383 1431
l 1431 1375
l 1431 1432
l 1433 1377
l 1432 1433
l 1433 1434
l 1420 1358
l 1357 1421
l 1436 1416
l 1398 1422
l 1357 1398
l 1361 1391
l 1293 1425
l 1283 1368
l 1366 1283
l 1286 1438
l 1285 852
l 852 940
l 1439 1395
l 1426 1439
l 1440 1271
l 1406 1424
l 1424 1270
l 1273 1423
l 1282 1278
l 1270 1352
l 1440 1269
l 1443 940
l 1285 1444
l 1445 1446
l 1404 1447
l 1440 1405
l 1390 1279
l 1281 1307
l 1356 1311
l 1449 1451
l 1451 1450
l 1449 1452
l 1452 1258
l 1450 1268
l 1449 1265
l 1263 1454
l 1455 1258
l 1258 1456
l 1456 1264
l 1260 1455
l 1263 1260
l 1259 1454
l 1262 1261
l 1458 1431
l 1381 1459
l 1255 1254
l 1460 1459
l 1461 1460
l 1269 1288
l 1462 1349
l 1349 1447
l 1447 1462
l 1439 1447
l 1446 1463
l 1463 1439
l 1444 1466
l 1466 1438
l 1445 1465
l 1468 1446
l 1466 1468
l 1444 1470
l 1470 1468
l 1462 1472
l 1472 1471
l 1472 1473
l 1473 1474
l 1470 1475
l 1475 1213
l 1470 1467
l 1467 966
l 939 1475
l 1213 1225
l 1212 1469
l 1222 1212
l 1476 1473
l 1471 1345
l 1479 1319
l 1478 1479
l 1477 1473
l 437 1319
l 1479 437
l 1330 1317
l 1317 1480
l 1314 1330
l 1315 731
l 1243 1481
l 1253 1244
l 1244 1336
l 1334 1337
l 995 1312
l 1484 1227
l 1227 1485
l 1483 1227
l 1488 1486
l 1232 1488
l 1488 1487
l 1232 702
l 1312 1232
l 804 807
l 1212 1206
l 1206 1464
l 1209 1463
l 1480 1316
l 1480 1489
l 1489 1476
l 1490 1220
l 969 1490
l 1476 1221
l 1490 1476
l 972 438
l 1226 972
l 438 1226
l 1219 685
l 685 1220
l 780 1316
l 969 780
l 1316 969
l 780 1315
l 979 996
l 1247 1482
l 1253 1243
l 1480 437
l 437 1489
l 1245 1491
l 439 1251
l 1248 439
l 439 434
l 439 1491
l 1491 434
l 1249 439
l 1491 1246
l 1246 1492
l 1239 1252
l 1332 1482
l 1477 1489
l 1349 1448
l 673 1214
l 1452 1359
l 1264 1385
l 421 1237
l 996 444
l 1493 1484
l 1494 1493
l 1495 1484
l 994 1495
l 1493 994
l 1496 1499
l 994 1483
l 1428 1419
l 1458 1378
l 1435 1374
l 446 713
l 717 448
l 454 710
l 680 678
l 468 464
l 518 488
l 490 407
l 993 515
l 496 509
l 504 518
l 520 525
l 516 526
l 529 521
l 527 528
l 529 531
l 534 469
l 536 532
l 549 462
l 540 547
l 548 546
l 559 543
l 553 556
l 1500 553
l 552 1500
l 553 409
l 563 560
l 565 558
l 567 565
l 596 571
l 573 596
l 572 579
l 578 593
l 593 582
l 586 600
l 592 591
l 603 594
l 611 608
l 610 614
l 616 603
l 605 620
l 609 612
l 617 629
l 651 639
l 636 641
l 650 674
l 662 665
l 970 666
l 1501 664
l 666 643
l 678 658
l 674 649
l 642 675
l 647 652
l 649 972
l 686 798
l 696 699
l 691 700
l 713 726
l 850 886
l 841 823
l 795 786
l 800 795
l 793 789
l 790 783
l 786 778
l 800 796
l 804 788
l 1327 785
l 788 1327
l 805 816
l 846 821
l 815 848
l 831 857
l 825 840
l 842 848
l 842 847
l 839 919
l 839 829
l 918 917
l 867 874
l 933 866
l 871 933
l 905 858
l 860 861
l 910 880
l 885 910
l 907 908
l 893 894
l 914 870
l 938 985
l 824 908
l 852 942
l 936 928
l 742 733
l 875 867
l 931 932
l 943 953
l 952 939
l 968 953
l 968 679
l 813 957
l 448 983
l 713 448
l 961 798
l 962 798
l 791 713
l 821 806
l 967 1199
l 678 967
l 957 958
l 971 438
l 449 1004
l 801 984
l 990 992
l 708 711
l 1002 1006
l 1018 1020
l 1025 1035
l 1045 1046
l 1034 1049
l 426 424
l 1048 426
l 1050 1045
l 1058 1031
l 1068 1062
l 1056 1068
l 1082 1071
l 1082 1087
l 1075 1080
l 1084 1097
l 1097 1015
l 1098 1090
l 1017 1091
l 1097 1013
l 1096 1095
l 1104 1101
l 1104 1113
l 1109 1103
l 1123 1126
l 1128 1114
l 1125 1126
l 1159 1149
l 1146 1136
l 1153 1131
l 1142 1151
l 1167 1151
l 1177 1179
l 1179 1162
l 1166 1168
l 1168 1181
l 1192 1182
l 1189 1188
l 1190 675
l 1211 1204
l 1203 1174
l 1183 1174
l 1226 1009
l 1229 429
l 1333 1250
l 1242 435
l 435 1492
l 1492 1244
l 1502 1265
l 1451 1502
l 1309 1310
l 1291 1397
l 1326 1322
l 437 1317
l 1347 1364
l 1302 1352
l 1353 1352
l 1303 1301
l 1367 1299
l 1381 1431
l 1379 1380
l 1383 1386
l 1372 1441
l 1437 1306
l 1442 1276
l 1415 1401
l 1396 1399
l 1442 1309
l 1403 1395
l 1284 1426
l 1430 1420
l 1432 1420
l 1357 1397
l 1276 1361
l 1258 1502
l 1449 1266
l 1453 1267
l 1301 1295
l 1463 1462
l 1468 1469
l 1470 1223
l 1222 1468
l 1488 1483
l 973 1226
l 974 1226
l 1491 435
l 1495 1227
l 1497 1485
l 1498 1493
l 920 851
l 1281 1282
l 1403 1393
l 543 552
l 760 761
l 768 769
l 1099 1100
l 1151 1135
l 1261 1260
l 1454 1457
# </edges>
